<?xml version="1.0" encoding="UTF-8" standalone="no"?>
<!-- Created with Inkscape (http://www.inkscape.org/) -->
<svg xmlns="http://www.w3.org/2000/svg" xmlns:svg="http://www.w3.org/2000/svg" version="1.1" id="svg2" width="192.75591" height="75.590553" viewBox="0 0 192.75591 75.590553" style="background-color:transparent;">
  <defs id="defs6">
    <clipPath clipPathUnits="userSpaceOnUse" id="clipPath16">
      <path d="M 0,0 H 144.56693 V 56.692913 H 0 Z" id="path14"/>
    </clipPath>
    <clipPath clipPathUnits="userSpaceOnUse" id="clipPath36">
      <path d="M 0,0 H 22 V 27 H 0 Z" id="path34"/>
    </clipPath>
    <clipPath clipPathUnits="userSpaceOnUse" id="clipPath56">
      <path d="M 0,0 H 25 V 27 H 0 Z" id="path54"/>
    </clipPath>
    <clipPath clipPathUnits="userSpaceOnUse" id="clipPath146">
      <path d="M 0,0 H 54 V 51 H 0 Z" id="path144"/>
    </clipPath>
    <clipPath clipPathUnits="userSpaceOnUse" id="clipPath166">
      <path d="M 0,0 H 11 V 23 H 0 Z" id="path164"/>
    </clipPath>
  </defs>
  <g id="g8" transform="matrix(1.3333333,0,0,1.3333333,0,2.2230971e-6)">
    <g id="g10">
      <g id="g12" clip-path="url(#clipPath16)">
        <g id="g18">
          <path d="M 0,0 H 144.56693 V 56.692913 H 0 Z" style="fill:none;fill-opacity:1;fill-rule:nonzero;stroke:none" id="path20"/>
        </g>
        <g id="g22" transform="scale(0.752953,0.755906)">
          <g id="g24">
            <g id="g26" transform="translate(13.315628,39.13124)">
              <g id="g28" transform="scale(0.75)">
                <g id="g30">
                  <g id="g32" clip-path="url(#clipPath36)">
                    <g id="g38" transform="scale(0.013409,0.013766)">
                      <g id="g40">
                        <path d="m 1640.583,1944.989 c 0,-0.094 -0.363,-0.458 -0.545,-0.733 -0.094,-0.182 0,-0.363 -0.094,-0.545 -0.82,-1.735 -7.662,-6.478 -10.124,-8.301 -0.182,-0.188 -0.457,-0.188 -0.733,-0.369 -3.464,-1.917 -8.119,-3.559 -11.401,-4.648 -3.834,-1.19 -7.393,-2.469 -11.132,-4.016 -3.008,-1.46 -6.297,-2.193 -9.397,-3.377 -10.675,-3.646 -21.163,-7.205 -32.201,-10.945 -11.221,-3.928 -22.353,-8.307 -33.485,-12.592 -4.924,-2.737 -9.76,-5.563 -14.503,-8.576 -8.395,-5.382 -16.332,-11.678 -24.539,-17.24 -3.47,-2.281 -8.395,-5.476 -12.686,-8.301 -11.766,-8.671 -23.625,-15.787 -35.12,-26.369 -10.219,-9.303 -19.434,-17.516 -28.467,-25.729 -7.299,-6.842 -14.867,-13.226 -22.078,-20.523 -8.846,-8.671 -17.791,-17.153 -25.723,-26.639 -6.571,-7.573 -11.771,-16.426 -18.431,-23.905 -2.737,-3.102 -6.659,-7.574 -10.036,-11.402 -9.579,-11.313 -18.977,-21.438 -27.734,-34.306 -7.662,-11.584 -14.778,-21.714 -21.713,-31.838 -5.745,-8.213 -11.314,-16.238 -16.878,-24.996 -6.565,-10.493 -13.043,-21.074 -18.882,-31.932 -4.748,-8.852 -8.488,-18.337 -13.319,-27.095 -2.192,-3.652 -5.111,-8.664 -7.755,-13.138 -7.117,-12.861 -14.873,-24.451 -21.075,-38.685 -5.751,-12.498 -10.95,-23.806 -15.969,-34.845 -4.197,-9.215 -8.207,-18.155 -12.498,-27.646 -4.925,-11.22 -9.942,-22.533 -14.321,-34.029 -3.74,-9.397 -5.933,-19.34 -9.854,-28.461 -1.729,-3.834 -4.104,-9.122 -6.202,-13.87 -5.657,-13.501 -12.041,-25.724 -16.971,-40.414 -4.01,-13.226 -8.119,-24.902 -12.316,-36.398 l -2.92,-7.756 c -0.27,-0.82 -0.545,-1.735 -0.908,-2.644 -0.182,-0.732 -0.275,-1.278 -0.363,-2.011 -0.276,-1.278 -0.458,-2.556 -0.64,-3.646 0.363,0 0.728,0.088 1.185,0 1.459,-0.369 6.565,-6.208 8.395,-8.301 1.277,-1.554 2.462,-3.928 3.465,-6.478 1.002,-2.469 1.459,-5.112 2.192,-7.211 0.545,-3.74 1.184,-7.299 2.093,-10.856 0.732,-3.008 1.553,-6.021 2.286,-9.028 1.185,-5.205 2.644,-10.218 3.552,-15.423 0.915,-5.2 1.46,-10.399 2.287,-15.781 1.729,-12.773 3.465,-25.542 5.65,-38.134 1.372,-10.399 3.289,-20.711 4.016,-31.11 0.094,-4.285 0.364,-10.399 0.552,-15.693 1.548,-15.323 -0.276,-29.646 0.82,-45.702 0.821,-14.326 1.642,-27.188 0.452,-39.687 -0.728,-10.218 -1.366,-20.254 -2.006,-30.835 -0.363,-12.592 -2.556,-24.908 -3.834,-37.313 -1.09,-10.13 -0.908,-20.436 -2.279,-30.384 -0.452,-4.285 -2.188,-10.03 -3.189,-15.142 -2.92,-14.597 -6.754,-27.916 -8.852,-43.609 -2.738,-13.5 -5.84,-25.542 -8.94,-37.401 -2.556,-9.585 -5.019,-19.164 -8.664,-28.648 -4.016,-11.59 -8.213,-22.992 -11.865,-34.669 -2.368,-9.761 -5.382,-19.34 -8.94,-28.555 -1.729,-3.833 -4.104,-9.122 -6.201,-13.776 -2.826,-6.66 -5.657,-13.138 -8.853,-19.521 -3.465,-6.202 -6.841,-12.592 -9.849,-19.615 -5.656,-12.316 -10.312,-23.718 -16.607,-33.936 -5.105,-8.395 -10.399,-16.514 -15.418,-25.272 l -9.121,-15.787 -9.942,-15.048 c -5.294,-8.307 -9.579,-17.428 -15.235,-25.454 -2.375,-3.376 -5.84,-8.031 -9.31,-11.677 -9.397,-11.133 -19.157,-20.711 -28.186,-33.116 -8.307,-10.769 -17.065,-19.433 -25.002,-28.373 -6.93,-7.117 -13.044,-14.691 -20.8,-21.35 -9.033,-8.213 -18.337,-16.238 -27.095,-24.721 -7.116,-7.029 -13.683,-14.691 -21.62,-20.711 -3.282,-2.644 -8.119,-5.933 -12.316,-8.94 -11.678,-8.758 -23.267,-15.969 -34.211,-26.274 -9.761,-9.033 -18.52,-17.059 -27.189,-25.09 -7.023,-6.478 -13.776,-12.956 -20.436,-20.072 -7.938,-8.577 -15.506,-17.335 -21.802,-27.001 -5.111,-7.849 -8.576,-16.608 -13.049,-24.727 -1.911,-3.37 -4.467,-8.207 -6.566,-12.498 -5.657,-12.498 -11.314,-24.176 -13.958,-38.591 -2.374,-12.768 -4.104,-24.264 -5.293,-35.578 l -0.639,-7.574 c 0,-0.182 -0.088,-0.27 -0.088,-0.458 -0.182,-3.283 0.457,-7.298 0.182,-10.487 -0.094,-2.738 0.088,-4.93 -0.182,-7.117 -0.276,-2.28 -1.097,-4.379 -2.832,-6.935 -3.74,-5.657 -10.218,-9.667 -15.781,-7.023 -2.919,1.278 -5.293,3.74 -7.48,6.841 -0.733,1.096 -1.46,2.28 -2.099,3.558 -1.097,2.005 -1.097,4.197 -1.185,6.478 0.088,2.281 0.182,4.561 0.545,6.566 0.182,1.735 0.363,3.47 0.275,5.2 -0.275,5.018 -0.094,9.767 0,15.054 0.364,5.293 0.727,11.132 2.005,17.974 1.002,6.114 3.376,15.33 6.296,24.357 2.368,13.776 5.475,30.014 6.935,39.593 1.46,9.673 2.005,19.709 3.922,29.288 0.182,1.278 0.457,2.556 0.639,3.833 4.01,22.716 11.947,44.518 18.794,66.688 5.839,17.974 7.662,28.555 11.22,42.237 1.46,5.569 3.007,11.59 4.836,18.888 1.823,6.748 5.018,16.784 8.301,26.819 2.919,10.124 5.839,20.342 7.386,27.189 2.099,9.397 2.92,19.246 4.749,28.736 0.182,1.278 0.452,2.644 0.639,3.922 2.005,11.221 4.104,22.534 6.841,33.667 2.738,11.22 5.019,22.534 7.023,33.936 3.194,18.519 4.016,29.651 5.838,43.878 0.733,5.839 1.554,12.135 2.826,19.709 2.468,14.052 8.758,42.513 10.675,56.746 1.278,9.942 1.735,20.072 3.102,29.92 0.094,1.372 0.275,2.738 0.369,4.016 2.462,23.63 9.122,46.165 13.776,69.245 3.646,18.612 4.924,30.108 7.204,44.705 1.003,5.927 2.28,12.404 3.922,20.066 3.102,14.327 11.953,42.97 15.33,57.203 2.644,9.761 4.467,19.797 7.116,29.65 0.363,1.278 0.64,2.645 1.003,3.922 3.188,11.584 7.116,22.992 11.766,34.118 4.654,11.133 9.309,22.265 14.052,33.392 7.573,17.885 11.22,29.105 17.24,42.97 2.28,5.751 5.2,11.859 9.31,18.706 3.558,6.566 9.579,16.145 16.056,25.542 6.109,9.491 13.138,18.519 17.147,24.814 5.569,8.759 11.408,17.335 17.429,25.911 0.908,1.096 1.734,2.187 2.556,3.283 7.479,9.672 15.688,18.888 24.721,27.188 8.482,8.846 18.7,16.057 28.01,24.082 7.938,5.839 14.046,10.95 19.885,15.511 6.021,4.285 11.495,8.301 17.886,12.587 2.55,1.829 5.563,3.194 8.576,4.93 3.101,1.735 7.387,4.467 11.126,6.296 2.92,1.729 8.031,3.371 12.862,4.467 4.836,1.19 9.584,1.372 11.953,0.552 2.556,-1.009 4.654,-1.735 6.02,-2.738 0.182,0.364 0.276,0.728 0.37,1.091 1.46,4.93 3.188,10.312 5.563,16.514 4.285,11.678 14.872,34.763 19.339,46.165 3.013,8.119 5.2,16.514 8.119,24.539 0.363,1.097 0.82,2.192 1.185,3.282 6.665,19.164 16.789,36.95 25.09,55.563 6.571,15.054 9.579,24.539 14.14,36.398 1.829,4.93 4.109,10.13 6.935,16.244 5.563,11.221 18.889,33.115 24.539,44.336 3.834,7.844 7.029,16.057 10.951,23.813 0.545,1.002 1.096,2.098 1.642,3.188 4.379,9.31 9.854,18.067 15.329,26.731 5.563,8.67 11.584,17.153 16.877,26.005 8.847,14.046 13.226,23.167 20.066,33.937 2.832,4.467 5.839,9.303 9.854,14.872 3.74,5.106 9.854,12.586 15.969,20.16 6.202,7.387 12.404,14.778 16.145,19.885 5.382,7.028 10.13,14.509 15.512,21.532 0.639,1.002 1.366,1.916 2.099,2.831 6.384,8.207 13.318,16.057 20.705,23.354 7.299,7.387 15.055,14.504 22.534,21.526 11.953,11.771 18.612,19.345 27.734,28.467 3.652,3.834 8.031,7.662 13.23,12.135 2.826,2.368 6.66,5.47 10.857,8.664 -10.312,-5.018 -20.254,-9.761 -29.833,-14.321 -10.312,-5.018 -20.436,-9.941 -31.017,-15.147 -12.593,-6.202 -25.636,-12.041 -37.771,-18.976 -10.13,-5.382 -19.158,-12.862 -29.193,-18.338 -4.197,-2.28 -10.13,-5.381 -15.33,-8.119 -14.685,-8.301 -29.281,-14.778 -44.248,-24.633 -13.137,-9.027 -25.178,-16.783 -37.131,-24.176 -9.942,-6.021 -19.158,-12.404 -29.193,-18.882 -11.947,-7.662 -23.355,-16.15 -34.758,-24.633 -9.215,-6.935 -17.697,-15.142 -27.095,-21.714 -4.104,-2.737 -9.673,-6.478 -14.685,-9.854 -13.688,-10.03 -27.371,-18.606 -40.783,-30.653 -11.859,-10.669 -22.898,-19.885 -33.849,-28.824 -8.758,-7.574 -17.423,-15.148 -26.456,-22.992 -10.764,-9.396 -21.62,-18.699 -32.113,-28.467 -8.664,-7.843 -15.875,-17.146 -24.357,-25.178 -3.559,-3.283 -8.576,-7.938 -12.861,-11.947 -12.316,-11.953 -24.814,-22.171 -36.949,-35.583 -10.4,-12.223 -20.16,-22.897 -29.927,-33.298 -7.938,-8.482 -15.869,-16.789 -24.082,-25.547 -10.218,-10.124 -18.888,-21.526 -27.916,-32.752 -7.21,-9.21 -13.231,-19.428 -20.711,-28.279 -3.283,-3.646 -7.844,-8.759 -11.766,-13.319 -11.044,-13.138 -21.714,-25.179 -32.025,-40.051 -9.121,-13.23 -17.879,-24.814 -26.092,-36.398 -6.566,-9.585 -13.043,-19.069 -19.797,-29.012 -8.025,-11.859 -16.238,-23.725 -23.812,-35.854 -6.384,-9.767 -11.126,-20.623 -17.241,-30.472 -2.737,-4.109 -6.478,-9.76 -9.76,-14.778 -9.309,-14.327 -18.431,-27.553 -26.826,-43.608 -7.11,-14.416 -13.5,-27.371 -20.248,-39.869 l -4.566,-8.482 c -1.911,-3.559 -3.646,-8.395 -5.651,-11.953 -1.735,-2.92 -3.013,-5.382 -4.654,-7.574 -1.46,-2.28 -3.652,-4.197 -6.753,-6.114 1.553,-3.922 2.28,-9.304 2.462,-13.138 0.188,-4.191 0.732,-8.119 1.19,-12.129 0.545,-3.376 0.909,-6.753 1.096,-10.129 0.727,-11.496 1.366,-22.805 2.462,-34.852 0.909,-14.321 0.639,-28.643 1.46,-42.876 0.727,-11.678 1.278,-23.355 0.909,-34.851 -0.27,-4.924 -0.727,-11.678 -1.184,-17.604 -2.005,-16.883 -4.379,-32.57 -6.114,-50.268 -1.911,-15.605 -3.646,-29.745 -6.202,-43.609 -2.375,-11.22 -4.743,-22.353 -7.205,-33.849 -3.195,-13.776 -7.392,-27.276 -10.493,-40.965 -2.737,-11.126 -5.2,-22.347 -8.758,-33.203 -1.642,-4.473 -3.922,-10.77 -6.203,-16.15 -6.753,-15.418 -13.049,-29.739 -19.251,-46.347 -5.933,-14.503 -10.944,-27.822 -17.422,-40.051 -5.387,-10.03 -10.675,-19.979 -16.15,-30.284 -7.023,-12.135 -14.779,-23.813 -21.713,-35.947 -5.927,-9.761 -10.945,-20.16 -17.335,-29.557 -2.825,-3.922 -6.565,-9.397 -10.218,-13.958 -10.581,-13.049 -20.523,-25.178 -31.655,-39.048 -10.036,-12.135 -18.883,-23.262 -28.737,-33.21 -7.844,-8.301 -16.238,-15.962 -24.357,-24.264 l -30.196,-29.012 c -8.125,-8.031 -15.423,-16.877 -23.994,-24.357 -3.652,-3.013 -8.758,-7.21 -13.231,-10.951 -12.68,-10.945 -25.454,-20.072 -38.134,-32.294 -11.22,-10.676 -21.256,-20.342 -31.292,-29.833 -8.031,-7.756 -16.057,-15.418 -24.357,-23.355 -9.854,-9.673 -19.615,-19.521 -28.736,-29.833 -7.668,-8.665 -14.597,-18.243 -22.904,-26.362 -3.558,-3.377 -8.571,-7.938 -13.043,-11.865 C 111.477,127.582 99.524,117.728 88.667,104.409 79.182,92.731 71.245,82.056 64.034,70.93 c -1.642,-2.556 -3.283,-5.018 -4.831,-7.668 -1.917,-3.37 -3.834,-7.75 -5.657,-11.126 -1.459,-2.832 -2.649,-5.2 -4.197,-7.299 -0.82,-1.189 -1.735,-2.374 -2.737,-3.47 -0.915,-1.547 -1.823,-3.283 -2.738,-4.831 L 38.95,28.048 C 36.851,24.402 34.841,19.659 32.472,16.101 28.732,10.532 26.176,6.522 19.974,2.87 12.937,-1.145 4.818,-1.232 1.717,4.425 0.257,7.25 -0.2,10.902 0.076,14.73 c 0.094,1.372 0.275,2.832 0.545,4.291 0.827,4.649 3.928,9.028 6.753,12.768 1.184,1.459 2.28,3.101 3.195,4.748 2.462,4.924 4.743,9.667 7.299,14.867 2.644,5.2 5.745,10.675 9.396,17.428 3.283,6.202 8.758,15.418 14.14,24.721 5.2,9.397 10.036,18.977 12.956,25.366 4.104,8.939 6.565,18.606 10.306,27.64 0.369,1.184 0.914,2.462 1.277,3.646 4.379,10.675 8.853,21.263 13.958,31.662 5.019,10.399 9.673,20.98 13.958,31.744 6.572,17.428 9.034,28.467 12.868,42.331 1.547,5.75 3.283,11.865 5.745,19.164 2.281,6.659 5.933,16.965 9.491,27.183 3.74,10.218 7.387,20.348 9.209,27.277 2.65,9.491 4.379,19.251 6.66,28.924 0.369,1.278 0.639,2.55 0.914,3.828 5.2,22.628 13.776,44.611 19.615,67.327 4.836,18.249 5.745,29.833 8.758,43.979 1.185,5.839 2.556,12.129 4.473,19.609 3.646,13.87 12.768,42.061 15.781,56.201 2.099,9.854 3.283,19.891 5.382,29.739 0.275,1.372 0.545,2.737 0.732,4.016 4.561,23.267 12.586,46.071 19.885,68.699 5.569,18.425 7.756,29.92 11.678,44.242 1.554,5.933 3.47,12.317 6.202,19.891 4.654,13.958 17.428,41.692 22.81,55.468 3.834,9.672 6.572,19.796 10.951,29.105 0.545,1.272 1.09,2.644 1.642,3.828 4.924,11.22 10.763,21.989 17.241,32.389 6.296,10.493 13.413,20.523 19.979,30.929 10.856,16.508 16.607,27.001 25.178,39.682 3.652,5.111 7.668,10.581 12.774,16.971 5.018,5.657 12.774,14.14 21.35,21.802 8.301,7.938 17.059,15.417 22.44,20.617 7.48,7.299 14.96,14.69 22.898,21.626 1.096,0.82 2.192,1.823 3.195,2.644 4.836,3.922 9.673,7.756 14.69,11.221 5.2,3.376 10.399,6.571 15.688,9.672 10.769,5.927 21.532,11.678 32.57,16.784 8.758,4.561 15.787,7.755 22.534,10.856 6.66,3.289 13.049,5.657 20.16,8.395 2.919,1.003 5.933,2.28 9.397,3.195 3.376,0.908 8.119,2.644 12.047,3.646 3.37,0.82 8.576,1.459 13.588,0.914 1.19,-0.094 2.287,-0.363 3.471,-0.551 0.909,1.829 2.005,3.559 2.919,5.205 0.909,1.729 2.005,3.465 2.738,5.2 2.368,5.2 4.561,10.124 7.022,15.599 2.556,5.476 5.382,11.314 9.122,18.244 3.558,6.39 8.852,16.15 15.054,25.365 5.933,9.397 11.859,18.794 15.33,25.178 4.924,8.853 9.209,17.974 14.228,26.82 0.639,1.096 1.278,2.374 1.917,3.559 5.657,10.398 12.229,20.348 19.433,29.926 7.023,9.579 14.234,19.064 20.894,28.918 10.763,15.875 15.875,26.369 23.624,38.955 3.377,5.018 6.936,10.587 11.678,16.877 8.946,11.59 28.648,34.03 37.225,45.802 5.745,8.389 11.402,16.877 17.516,24.902 0.821,1.097 1.642,2.192 2.462,3.288 14.14,19.064 31.205,35.941 46.71,53.915 13.138,14.052 19.979,23.355 29.47,34.669 3.922,4.648 8.207,9.579 13.594,15.324 5.106,5.293 12.862,13.23 21.075,20.711 8.119,7.574 16.238,15.055 21.345,20.254 6.935,7.387 13.23,15.418 20.166,22.716 0.908,1.003 1.822,2.005 2.731,3.008 8.213,8.576 16.971,16.607 26.368,23.905 9.303,7.48 18.7,14.779 27.734,22.535 14.414,12.498 22.17,21.074 32.752,31.38 4.467,4.016 9.396,8.301 15.511,13.231 5.651,4.467 14.503,11.038 23.355,17.604 9.027,6.391 18.062,12.773 23.624,17.335 7.756,6.478 15.236,13.319 23.268,19.339 1.002,0.827 2.099,1.735 3.102,2.557 18.519,14.69 39.317,26.274 58.475,39.774 15.875,10.312 24.545,17.792 36.68,26.005 4.925,3.377 10.307,7.023 16.966,11.127 6.202,3.74 15.692,9.215 25.271,14.509 9.761,5.018 19.434,10.036 25.636,13.776 8.482,5.105 16.514,11.126 24.996,16.238 1.185,0.727 2.281,1.459 3.471,2.187 9.849,6.114 19.979,11.952 30.653,16.695 10.581,4.93 21.526,9.397 31.926,14.509 16.971,8.119 26.644,14.321 39.411,21.074 5.2,2.738 11.133,5.288 18.155,8.389 13.231,5.476 40.602,15.236 53.37,21.075 8.945,4.109 17.516,8.852 26.913,12.229 1.19,0.457 2.468,1.003 3.652,1.46 11.765,4.742 23.812,8.576 35.853,12.316 4.016,1.917 8.025,3.828 11.859,5.927 3.834,2.099 7.205,3.834 10.399,5.569 -5.839,-0.552 -11.677,-1.009 -17.516,-1.647 -10.581,-1.272 -21.163,-3.553 -31.656,-5.288 -4.473,-0.457 -10.675,-1.184 -16.238,-1.823 -15.693,-2.192 -30.565,-2.556 -46.528,-6.847 -14.233,-4.01 -27.095,-7.205 -39.869,-10.124 -10.399,-2.644 -20.893,-4.285 -31.562,-7.574 -12.774,-3.646 -25.642,-7.204 -38.321,-11.22 -10.306,-3.465 -20.436,-7.844 -30.653,-11.496 -4.379,-1.366 -10.399,-3.189 -15.875,-4.836 -14.96,-5.382 -29.558,-8.94 -44.975,-15.869 -13.501,-6.479 -25.999,-11.953 -38.228,-17.065 -10.124,-4.285 -20.16,-8.119 -30.466,-12.768 -12.316,-5.657 -24.727,-11.226 -36.768,-17.335 -10.036,-4.93 -19.07,-11.313 -28.831,-16.332 -4.104,-2.099 -9.941,-4.924 -14.96,-7.392 -14.415,-7.568 -28.467,-13.319 -43.151,-22.347 -12.955,-8.119 -24.727,-15.33 -36.492,-22.077 -9.673,-5.476 -19.158,-10.951 -29.105,-16.608 -11.947,-6.935 -23.262,-14.414 -34.664,-22.076 -9.127,-6.385 -17.609,-13.958 -27.007,-19.891 -3.922,-2.551 -9.485,-5.927 -14.321,-8.939 -13.776,-9.122 -27.465,-16.421 -41.328,-27.002 -12.316,-9.309 -23.537,-17.697 -34.757,-25.547 -9.034,-6.66 -17.973,-13.138 -27.283,-19.979 -11.126,-8.119 -22.165,-16.514 -32.934,-25.272 -8.758,-7.116 -16.602,-15.505 -25.636,-22.259 -3.922,-2.737 -9.215,-6.565 -13.958,-10.036 -13.225,-10.124 -26.638,-18.337 -39.681,-30.196 -11.408,-10.493 -22.083,-19.708 -32.665,-28.555 l -7.205,-6.021 c -2.374,-2.011 -4.93,-4.561 -7.393,-6.841 0.276,-0.457 0.458,-0.914 0.733,-1.372 1.277,-3.007 2.28,-6.384 2.825,-9.579 0.639,-2.556 1.278,-5.018 1.735,-7.661 1.823,-7.393 2.368,-15.148 1.642,-23.449 -0.915,-8.389 -3.102,-17.604 -8.119,-27.095 -4.561,-8.758 -13.501,-20.523 -23.994,-29.651 -10.399,-9.304 -21.35,-16.877 -28.555,-21.62 -10.13,-6.753 -20.348,-13.5 -31.386,-18.336 -1.459,-0.64 -3.007,-1.366 -4.467,-1.918 -13.049,-5.656 -27.095,-8.939 -41.422,-10.217 -14.228,-1.185 -28.918,-0.182 -43.422,3.376 -5.569,1.735 -10.493,3.377 -15.147,4.837 -4.561,2.098 -8.665,4.104 -12.768,5.926 -3.833,2.557 -7.667,4.837 -11.226,7.668 -3.283,3.371 -7.117,6.202 -9.849,10.488 -2.28,3.558 -5.111,7.116 -6.571,11.677 -0.821,2.28 -1.735,4.562 -2.556,6.935 -0.545,2.557 -1.003,5.2 -1.46,7.938 -1.642,10.125 -0.182,25.729 4.748,39.23 4.743,13.776 11.766,25.816 16.238,33.66 6.478,10.77 12.862,21.808 21.257,31.111 1.002,1.277 2.099,2.649 3.188,3.922 9.948,10.769 21.808,19.891 34.399,27.464 12.499,7.568 26.087,13.683 40.414,17.335 5.563,1.823 11.127,2.28 15.963,3.371 5.018,0.369 9.673,1.008 14.14,0.914 8.94,-0.182 17.517,-1.184 26.187,-4.742 3.559,-1.46 7.387,-2.738 10.857,-5.382 1.823,-1.097 4.009,-2.556 6.296,-4.016 2.28,-1.46 4.104,-3.465 5.927,-5.2 1.372,-1.459 3.283,-3.282 4.924,-5.563 1.459,-2.375 2.737,-5.112 4.016,-7.756 2.011,-3.834 2.831,-7.85 2.919,-10.77 0.364,0.276 0.821,0.552 1.19,0.821 1.547,1.097 3.007,2.28 4.379,3.559 3.922,3.833 7.75,7.479 11.859,11.495 4.285,4.016 8.939,8.213 14.778,13.138 10.675,9.033 34.575,25.09 45.432,34.03 7.48,6.202 14.321,13.318 21.895,19.521 0.915,0.821 1.917,1.735 2.92,2.556 17.334,14.961 37.131,26.639 55.374,40.326 14.873,10.857 22.628,18.795 33.755,27.553 4.566,3.646 9.584,7.48 15.787,11.766 11.402,8.213 36.399,22.259 47.619,30.384 7.85,5.651 15.147,12.223 22.991,17.88 1.003,0.82 2.1,1.547 3.102,2.368 18.431,13.325 38.591,23.542 58.023,35.308 15.693,9.304 24.634,15.875 36.398,23.631 4.837,3.189 10.131,6.478 16.608,10.218 6.114,3.376 15.323,8.395 24.902,12.861 9.491,4.562 18.888,9.122 24.908,12.593 8.301,4.742 16.15,10.398 24.357,15.235 1.097,0.639 2.28,1.366 3.283,2.005 9.491,6.021 20.166,10.036 30.565,14.415 10.399,4.285 20.893,8.395 31.11,13.044 16.421,7.755 26.093,12.773 38.497,18.976 5.2,2.556 10.764,5.112 17.61,7.938 6.384,2.556 16.145,6.208 25.905,9.579 9.948,3.194 19.797,6.39 26.093,8.852 8.758,3.559 17.516,7.662 26.368,11.038 1.184,0.546 2.368,1.003 3.559,1.46 10.305,4.473 21.162,7.023 32.019,9.673 10.856,2.55 21.714,5.018 32.389,7.938 16.972,5.199 27.277,8.389 40.414,12.404 5.382,1.554 11.314,3.194 18.431,4.742 6.566,1.46 16.695,3.289 26.732,5.112 10.217,1.184 20.617,2.187 27.183,3.377 9.31,1.641 18.431,4.191 27.646,5.838 1.272,0.27 2.551,0.545 3.74,0.821 10.764,2.462 21.802,2.919 32.84,3.282 10.951,0.363 21.989,0.363 32.847,1.097 17.516,1.548 28.097,2.55 41.598,3.282 2.737,0.088 5.657,0.182 8.759,0.275 3.013,0.183 7.479,0.452 11.132,0.271 3.007,-0.088 7.662,-0.728 11.947,-1.917 4.291,-0.909 8.213,-3.008 9.767,-4.925 2.462,-2.919 4.197,-4.924 4.561,-7.298 0.456,-0.549 0.638,-1.188 0.363,-2.19 z m -526.672,-685.872 c -0.639,2.92 -1.828,6.93 -2.462,10.307 -0.188,1.459 -0.188,3.47 -0.188,5.656 -1.185,-0.727 -2.825,-1.096 -4.83,-0.908 -2.468,0.363 -5.388,1.729 -7.668,3.922 -1.729,1.547 -3.102,3.282 -4.197,5.199 -3.646,6.385 -2.731,13.226 -1.729,18.425 0.545,2.011 0.908,4.016 1.366,6.114 -0.364,-0.639 -0.821,-1.277 -1.185,-1.641 -2.737,-3.377 -9.579,-5.563 -13.776,-7.574 -3.739,-1.642 -7.204,-3.283 -10.675,-5.288 -2.92,-1.642 -5.927,-3.101 -8.758,-5.018 -9.485,-6.296 -19.158,-12.047 -28.373,-19.434 l -8.482,-6.296 -8.031,-7.023 c -5.382,-4.561 -10.488,-9.309 -15.143,-14.69 -3.922,-4.285 -7.662,-8.664 -11.221,-13.225 -3.376,-4.655 -6.841,-9.216 -10.581,-13.595 -3.288,-3.559 -7.392,-8.852 -11.132,-13.5 -2.645,-3.289 -5.2,-6.572 -7.756,-9.855 l -7.299,-10.129 c -5.018,-6.748 -9.672,-13.864 -13.957,-21.802 -4.016,-6.841 -7.48,-13.595 -10.857,-20.072 -3.465,-6.565 -7.022,-12.68 -9.942,-19.157 -5.018,-10.494 -9.761,-20.981 -14.415,-32.02 -5.475,-13.231 -10.95,-26.551 -15.33,-40.145 -3.739,-11.039 -5.65,-22.716 -9.396,-33.661 -1.642,-4.654 -3.74,-11.044 -5.651,-16.789 -5.2,-16.238 -10.587,-31.38 -13.958,-49.354 -3.106,-15.787 -5.933,-30.108 -9.033,-43.973 -2.374,-11.408 -4.742,-22.628 -7.211,-34.394 -2.731,-14.052 -5.65,-28.104 -7.938,-42.149 -1.822,-11.589 -2.462,-23.267 -4.285,-34.851 -0.914,-4.742 -2.187,-11.496 -3.283,-17.428 -2.737,-16.965 -6.659,-32.565 -8.67,-50.538 -1.911,-15.969 -4.01,-30.196 -6.384,-44.066 -2.099,-11.402 -4.197,-22.623 -6.296,-34.3 0,0 -1.917,-10.494 -3.74,-21.169 -1.735,-10.581 -3.558,-21.074 -3.558,-21.074 -1.917,-11.496 -2.369,-23.355 -4.924,-34.575 -1.19,-4.743 -2.831,-11.314 -4.197,-17.059 -3.559,-16.696 -9.215,-31.656 -12.592,-49.172 -4.104,-15.235 -7.117,-29.381 -11.221,-42.788 -3.464,-10.95 -6.841,-21.713 -10.399,-32.934 -4.197,-13.049 -8.119,-26.274 -11.314,-39.688 -1.002,-4.561 -1.823,-9.121 -2.556,-13.776 4.567,5.475 9.31,10.763 13.87,15.962 11.132,12.317 17.335,20.072 25.911,29.288 3.559,3.74 7.662,7.574 12.68,12.041 9.397,8.119 29.833,22.628 39.412,30.108 6.565,5.293 12.498,11.402 18.794,16.696 0.82,0.727 1.729,1.547 2.556,2.28 7.387,6.384 15.049,12.316 22.44,18.519 7.48,6.114 15.143,12.041 22.353,18.431 12.041,10.036 16.877,18.337 24.539,27.365 3.102,3.746 6.479,7.755 10.857,12.41 4.104,4.197 11.038,10.036 16.783,16.877 6.026,6.66 12.047,13.319 15.693,17.974 4.836,6.478 9.49,13.225 13.869,20.072 0.64,0.908 1.185,1.911 1.73,2.825 4.93,8.213 10.675,15.875 16.514,23.449 5.838,7.568 12.041,14.96 16.607,23.443 7.662,13.5 11.49,21.989 17.059,32.477 2.462,4.197 4.648,9.034 7.568,14.691 2.649,5.293 7.117,13.043 11.496,20.799 4.379,7.938 9.127,15.511 11.132,21.168 2.919,7.755 4.925,15.781 7.844,23.537 0.275,1.002 0.639,2.099 1.009,3.101 2.919,9.215 7.567,17.792 10.763,26.914 3.376,9.215 7.298,17.974 10.493,27.095 2.644,7.393 4.561,13.413 6.021,18.976 1.097,5.745 2.099,11.132 3.282,17.059 1.003,4.93 2.193,10.13 3.922,16.42 1.46,5.751 4.743,14.327 6.842,23.173 2.192,8.94 4.197,17.885 5.199,23.812 1.372,8.395 1.917,16.877 3.195,25.179 0.182,1.096 0.275,2.28 0.363,3.376 0.457,10.036 2.192,19.615 4.016,29.288 1.642,9.761 4.197,19.339 4.836,29.281 1.097,16.057 0.546,25.817 0.728,38.228 -0.088,5.105 0.639,10.581 0.275,17.24 0,12.229 1.46,37.495 1.185,49.905 -0.728,8.665 -2.645,17.241 -3.553,25.911 -0.188,1.184 -0.369,2.28 -0.457,3.465 -1.372,10.13 -1.46,20.072 -1.829,30.195 -1.003,10.037 -1.823,20.166 -3.189,30.203 -2.28,16.326 -4.291,25.998 -7.662,38.314 -0.641,2.465 -1.28,5.202 -1.919,7.94 z M 556.492,952.125 c -0.639,18.155 -3.195,29.012 -4.655,42.876 -0.275,2.832 -0.545,5.751 -1.096,8.852 -0.545,3.189 -1.459,7.662 -1.729,11.402 -0.276,2.644 -0.182,6.659 0.088,10.581 -0.909,-0.182 -2.005,-0.451 -2.826,-0.545 -3.921,-0.457 -7.662,-1.097 -11.407,-2.099 -3.189,-0.639 -6.291,-1.917 -9.392,-2.826 -10.769,-3.106 -20.529,-7.485 -31.11,-11.952 l -18.431,-9.216 c -6.021,-3.465 -11.953,-7.022 -17.792,-10.675 -9.304,-6.565 -17.786,-14.228 -26.638,-21.075 -3.922,-2.738 -9.216,-6.66 -13.864,-10.306 -13.049,-10.399 -25.454,-20.348 -37.313,-33.754 -10.406,-11.953 -18.976,-23.355 -27.646,-34.394 -6.841,-9.216 -13.776,-18.155 -20.16,-28.104 -4.104,-5.839 -7.938,-11.859 -11.59,-17.968 -3.74,-6.026 -7.298,-12.135 -10.581,-18.524 -5.563,-10.218 -9.215,-21.438 -14.503,-31.563 -2.28,-4.379 -5.476,-10.312 -8.213,-15.599 -7.023,-15.605 -14.597,-29.926 -20.072,-47.261 -4.924,-15.323 -9.397,-29.012 -13.776,-42.513 -3.646,-11.132 -7.111,-22.077 -10.856,-33.479 -4.104,-13.776 -8.483,-27.465 -11.859,-41.423 -2.55,-11.495 -3.646,-23.354 -6.566,-34.669 -1.372,-4.742 -3.283,-11.401 -4.836,-17.146 -4.285,-16.79 -9.672,-32.113 -13.137,-50.087 -3.102,-15.781 -6.478,-29.927 -10.124,-43.791 -3.107,-11.22 -5.933,-22.535 -8.758,-34.306 l -10.675,-42.055 c -2.737,-11.496 -4.109,-23.262 -7.48,-34.575 -1.553,-4.743 -3.558,-11.221 -5.387,-16.971 -5.288,-16.514 -11.402,-31.474 -16.238,-49.079 -3.74,-15.787 -8.207,-29.651 -12.68,-43.339 -3.646,-11.127 -7.938,-21.983 -11.953,-33.298 l -15.506,-40.507 c -2.011,-4.831 -3.559,-9.761 -5.2,-14.685 3.101,3.465 6.108,6.935 9.303,10.218 0.915,1.003 1.823,1.917 2.644,2.919 7.668,8.301 15.693,16.145 23.725,24.082 8.389,8.031 16.695,16.15 24.996,24.176 13.138,13.137 20.342,21.895 30.103,32.207 4.016,4.198 8.395,8.759 14.052,13.864 10.675,9.31 33.485,26.731 43.703,36.129 7.11,6.659 13.588,13.87 20.523,20.436 0.914,0.915 1.823,1.917 2.737,2.738 16.057,15.875 34.3,29.106 50.269,44.611 12.773,12.592 19.891,20.893 28.83,31.386 3.646,4.285 7.662,8.846 12.498,14.321 4.467,5.106 11.678,12.498 18.795,19.891 7.11,7.568 13.318,15.687 17.422,21.074 5.476,7.662 10.582,15.6 15.236,23.719 0.639,1.002 1.277,2.187 1.917,3.189 5.563,9.491 12.041,18.431 18.519,27.283 6.202,9.122 12.592,18.243 18.431,27.64 9.027,15.236 12.404,25.635 18.243,37.952 2.556,5.019 4.742,10.675 7.756,17.335 2.825,6.202 7.48,15.324 12.135,24.633 4.379,9.303 8.119,18.882 10.399,25.36 3.283,8.852 5.927,17.792 8.395,26.914 0.363,1.184 0.639,2.462 1.002,3.652 2.826,10.669 7.023,20.887 10.582,31.38 3.376,10.581 6.841,21.075 9.854,31.838 4.379,17.428 4.743,28.373 7.023,41.967 1.002,5.657 1.46,11.771 2.556,19.07 1.003,6.841 3.195,16.965 5.382,27.095 1.823,10.218 3.195,20.523 3.834,27.277 0.82,9.49 0.82,19.069 0.82,28.555 -0.094,1.278 -0.094,2.556 -0.094,3.834 -0.182,11.126 1.185,22.259 1.642,33.479 0.272,11.222 0.817,22.535 0.729,33.849 z m 50.632,485.437 c -0.094,3.377 -1.459,7.299 -2.462,10.494 -0.551,2.644 -1.823,4.742 -2.374,7.022 -0.363,1.735 -0.821,3.646 -0.909,5.933 -2.192,1.271 -3.833,2.919 -4.379,5.469 -0.639,3.195 -0.094,7.029 1.003,10.951 0.363,0.908 0.639,1.823 1.002,2.826 -0.639,0.182 -1.184,0.457 -1.917,0.732 -2.556,1.365 -5.018,2.644 -6.203,3.283 -1.823,1.002 -4.197,2.556 -6.02,4.473 -1.002,0.908 -1.917,1.91 -2.65,3.007 -0.909,0.915 -1.729,1.735 -2.462,2.556 -1.278,1.366 -2.556,2.645 -3.74,4.016 -1.366,1.091 -2.919,1.911 -4.467,2.92 -2.468,1.729 -5.294,2.731 -8.031,3.828 -9.485,3.47 -19.979,4.016 -31.199,1.822 -13.413,-2.825 -27.095,-8.758 -39.505,-17.059 -10.124,-6.929 -18.882,-15.875 -27.371,-24.633 -3.558,-3.74 -8.665,-8.758 -12.499,-13.776 -10.856,-14.046 -21.162,-28.555 -24.357,-45.884 -3.007,-15.235 -0.82,-27.101 5.112,-35.946 4.924,-7.393 13.137,-12.862 23.354,-16.79 6.384,-2.279 12.317,-4.104 18.977,-4.561 6.565,-0.545 13.5,-0.27 20.523,0.733 11.408,1.642 22.446,6.565 33.391,10.399 4.655,1.547 11.133,3.922 16.602,6.384 15.605,7.48 30.29,15.693 42.149,29.105 10.4,11.766 16.332,23.625 18.067,34.938 0.271,2.647 0.547,5.202 0.365,7.758 z" style="fill:#b8e5e0;fill-opacity:1;fill-rule:nonzero;stroke:none" id="path42"/>
                      </g>
                    </g>
                  </g>
                </g>
              </g>
            </g>
          </g>
          <g id="g44">
            <g id="g46" transform="translate(44.891207,39.53116)">
              <g id="g48" transform="scale(0.75)">
                <g id="g50">
                  <g id="g52" clip-path="url(#clipPath56)">
                    <g id="g58" transform="scale(0.013665,0.013642)">
                      <g id="g60">
                        <g id="g62">
                          <path d="m 1601.84,613.542 c 2.224,-3.521 4.288,-7.467 6.597,-12.265 2.063,-4.382 5.148,-11.244 8.233,-18.105 2.831,-6.947 5.575,-13.979 7.724,-18.352 3.085,-6.085 6.605,-12.01 9.265,-18.351 l 1.202,-2.489 c 3.427,-7.288 6.341,-14.84 8.489,-22.647 2.31,-7.799 4.714,-15.607 7.032,-23.245 3.69,-12.436 6.947,-19.638 10.288,-28.988 1.286,-3.947 2.658,-8.149 4.031,-13.288 2.744,-9.436 6.606,-29.168 9.266,-38.51 1.978,-6.521 4.628,-12.872 6.436,-19.392 l 0.766,-2.649 c 4.809,-15.276 6.777,-31.308 10.468,-46.924 2.915,-12.521 5.66,-19.809 8.49,-29.33 1.202,-3.946 2.404,-8.233 3.69,-13.382 2.225,-9.606 5.915,-29.244 8.83,-38.51 2.318,-6.691 4.373,-12.606 6.691,-19.212 l 0.946,-2.574 c 2.489,-7.543 4.629,-15.181 6.521,-22.979 1.968,-7.723 3.767,-15.53 6.341,-23.074 4.031,-12.266 7.031,-19.468 11.063,-28.478 1.543,-3.776 3.181,-7.808 4.979,-12.776 1.713,-4.637 3.777,-11.84 6.521,-18.786 2.659,-6.947 5.403,-13.808 7.372,-18.181 2.745,-6.265 6.691,-11.839 9.776,-17.84 l 1.288,-2.318 c 3.946,-6.947 7.031,-14.234 10.893,-21.266 3.606,-7.042 7.203,-14.159 11.063,-21.105 6.947,-10.808 11.925,-16.809 17.67,-24.787 1.116,-1.628 2.489,-3.255 3.946,-4.969 1.373,-1.808 3.341,-4.297 4.97,-6.436 2.574,-3.606 7.041,-11.669 6.775,-15.181 -0.17,-2.489 -0.426,-4.287 -1.192,-5.574 -0.094,-0.17 -0.18,-0.436 -0.35,-0.605 -0.427,-0.426 -0.937,-0.767 -1.629,-0.937 -1.286,-0.35 -6.69,1.968 -8.489,2.915 -2.573,1.287 -5.403,4.798 -7.287,7.543 -1.553,1.808 -3.01,3.606 -4.638,5.319 l -4.627,4.808 c -5.489,5.054 -10.895,10.117 -16.554,15.351 -6.521,6.521 -13.979,12.095 -21.104,17.925 -5.831,4.798 -12.266,8.83 -18.352,13.297 -2.404,1.968 -5.915,4.713 -8.915,7.117 -8.669,6.947 -16.902,13.288 -26.935,19.553 -8.84,5.66 -16.639,10.723 -24.361,15.691 -6.257,4.203 -12.437,8.414 -19.127,12.436 -7.894,4.808 -15.776,10.042 -23.926,14.5 -6.776,3.691 -13.979,6.521 -20.5,10.382 -2.659,1.713 -6.436,4.117 -9.776,6.171 -9.861,5.574 -18.445,11.839 -29.254,17.073 -9.521,4.543 -18.01,9.086 -25.987,13.723 -6.682,3.852 -13.203,7.714 -19.979,11.66 -8.148,4.628 -16.298,9.266 -24.702,14.063 -6.775,3.691 -14.148,6.436 -20.754,10.553 -2.659,1.713 -6.521,4.202 -9.862,6.436 -9.786,5.83 -18.275,12.606 -28.903,18.351 -9.521,5.064 -17.67,10.288 -25.648,15.521 -6.605,4.288 -12.871,8.584 -19.382,13.382 l -23.33,16.894 c -6.266,4.723 -13.212,8.584 -19.212,13.638 -2.489,2.148 -6.01,5.234 -9.011,7.893 -4.457,3.946 -8.574,7.552 -12.86,11.319 l -6.521,5.575 c -2.148,1.978 -4.287,3.861 -6.605,5.925 -8.234,7.031 -15.437,13.638 -22.383,20.234 -5.745,5.489 -11.234,10.893 -17.073,16.553 -6.512,7.297 -12.777,14.243 -19.383,21.531 -5.319,5.745 -11.66,10.638 -16.724,16.639 -2.14,2.574 -4.969,6.094 -7.458,9.265 -7.212,9.095 -12.605,18.531 -20.669,27.702 -7.032,8.148 -13.127,15.786 -18.958,23.415 -4.543,6.35 -8.574,12.956 -13.041,19.647 l -15.947,24.011 c -4.553,6.436 -10.126,12.095 -13.809,19.042 -1.457,2.83 -3.605,6.946 -5.403,10.552 -5.659,10.032 -9.776,19.979 -16.468,30.105 -6.181,8.916 -10.212,17.66 -14.585,26.074 -3.425,7.032 -6.775,13.893 -10.286,21.01 -4.033,8.66 -8.756,17.064 -12.532,25.818 -3.341,7.032 -7.798,13.553 -10.713,20.755 -1.116,2.915 -2.744,7.287 -4.202,10.979 -4.297,10.638 -7.552,20.755 -12.266,31.818 -4.382,9.691 -7.893,18.616 -11.243,27.446 -2.649,7.202 -5.31,14.414 -8.054,21.872 -3.095,8.915 -5.754,18.01 -9.096,26.935 -2.659,7.288 -6.521,14.149 -8.744,21.521 -0.862,3 -2.064,7.382 -3.095,11.234 -3.257,10.893 -4.629,21.531 -8.66,32.765 -3.521,10.042 -6.266,19.127 -8.83,28.223 -2.148,7.373 -3.606,14.754 -5.489,22.468 -2.233,9.18 -4.297,18.36 -6.861,27.446 -2.063,7.468 -5.489,14.499 -7.127,22.042 -0.511,3.095 -1.287,7.553 -1.969,11.499 -2.148,11.064 -2.915,21.702 -6.18,33.191 -2.83,10.118 -4.969,19.383 -6.511,28.648 -1.202,7.543 -2.575,14.925 -3.862,22.723 -1.627,9.266 -3.085,18.617 -5.148,27.797 -1.543,7.458 -4.116,14.83 -5.234,22.383 -0.34,3.085 -0.766,7.628 -1.202,11.575 -1.542,11.148 -1.883,21.786 -4.371,33.37 -2.055,10.287 -3.427,19.725 -4.629,28.989 l -0.775,6.255 c -0.341,2.66 -1.373,5.925 -1.713,8.585 -0.512,4.372 -0.862,7.372 1.458,11.831 0.084,0.17 0.255,0.34 0.425,0.52 -4.117,7.799 -7.969,15.606 -13.287,23.5 -5.831,8.659 -10.809,16.638 -15.531,24.616 -3.852,6.512 -7.714,12.947 -11.659,19.639 -4.809,7.978 -9.606,15.955 -14.755,23.755 -4.202,6.35 -9.436,12.01 -13.467,18.36 -1.543,2.744 -3.767,6.597 -5.745,9.946 -5.915,9.521 -10.638,18.871 -17.669,28.308 -6.341,8.233 -11.745,15.947 -16.894,23.585 -4.287,6.255 -8.49,12.351 -12.947,18.777 -5.234,7.638 -10.723,15.18 -16.382,22.563 -4.638,6 -10.382,11.063 -14.84,17.148 -1.713,2.66 -4.287,6.265 -6.521,9.521 -6.691,8.754 -12.01,17.84 -20.074,26.424 -7.203,7.457 -13.032,14.745 -19.118,21.606 -4.979,5.745 -9.701,11.328 -14.84,17.243 -6.265,6.777 -12.521,13.724 -19.042,20.244 -5.319,5.404 -11.499,9.862 -16.553,15.436 -2.148,2.32 -5.148,5.575 -7.723,8.405 -7.808,7.894 -14.404,16.042 -23.244,23.67 -7.893,6.861 -14.84,13.042 -21.787,19.042 -5.574,5.063 -11.148,10.031 -16.894,15.181 -6.947,6.18 -13.723,12.521 -21.181,18.01 -6.095,4.553 -12.872,8.149 -18.616,12.957 -2.49,2.224 -5.66,5.053 -8.575,7.628 -8.405,7.211 -16.042,14.328 -25.819,20.755 -8.659,5.754 -16.297,11.243 -23.584,16.732 -5.924,4.287 -12.096,8.66 -18.446,13.203 -7.628,5.318 -15.18,10.722 -22.979,15.701 -6.351,4.116 -13.553,6.946 -19.818,11.063 -2.66,1.883 -6.17,4.373 -9.351,6.512 -9.341,6.094 -17.319,12.871 -27.616,18.445 -9.266,4.713 -17.319,9.436 -25.213,14.149 -6.35,3.86 -12.691,7.722 -19.297,11.754 -7.978,4.628 -16.041,9.351 -24.19,13.638 -6.691,3.427 -13.978,5.83 -20.5,9.606 -2.659,1.628 -6.521,3.86 -9.776,5.829 -9.776,5.32 -18.351,11.234 -29.074,15.957 -9.436,4.202 -17.755,8.404 -25.989,12.437 -3.947,2.054 -8.063,4.116 -12.095,6.171 3.351,-3.342 6.776,-6.606 10.032,-9.862 10.041,-9.691 16.732,-14.84 24.531,-22.298 3.18,-3 6.691,-6.266 10.467,-10.553 3.521,-4.031 8.745,-10.202 13.723,-16.553 4.799,-6.436 9.692,-12.861 13.212,-16.894 4.713,-5.489 9.691,-11.148 14.489,-16.638 l 1.893,-2.234 c 5.489,-6.69 10.373,-13.893 15.096,-21.095 4.627,-7.382 9.17,-14.755 13.808,-22.052 7.458,-11.745 12.862,-18.267 18.777,-27.181 2.404,-3.692 5.148,-7.638 7.893,-12.616 5.319,-9.171 14.414,-28.818 19.297,-38.244 3.776,-6.521 7.202,-12.701 10.894,-19.298 l 1.372,-2.574 c 8.148,-15.266 13.468,-31.913 19.723,-47.946 5.234,-12.871 8.925,-20.414 13.212,-30.104 1.712,-4.117 3.435,-8.49 5.404,-13.894 3.605,-9.957 9.35,-30.712 12.862,-40.658 2.403,-6.861 5.319,-13.639 7.637,-20.586 l 0.946,-2.744 c 5.83,-16.297 9.086,-33.275 13.543,-49.913 3.435,-13.383 6.521,-21.19 9.266,-31.479 0.52,-2.148 1.116,-4.287 1.713,-6.605 0.69,-2.404 1.552,-5.659 2.319,-8.575 0.34,-1.372 0.605,-3.265 0.946,-5.233 l 0.256,0.17 1.457,0.861 0.776,0.427 0.34,0.17 0.341,0.085 1.031,0.341 0.511,0.17 0.521,0.095 h 0.426 l 0.511,0.086 0.436,-0.086 h 0.426 l 0.341,-0.18 h 0.17 0.086 0.179 l 0.682,0.18 h 0.596 l 0.605,-0.18 v 0 h 0.171 l 0.426,-0.085 0.436,-0.085 0.426,-0.171 0.596,-0.256 c 0.265,-0.084 0.435,-0.256 0.605,-0.34 1.543,-1.032 3.085,-1.979 4.628,-3.001 l 4.373,-3.009 2.148,-1.458 0.085,-0.085 v -0.085 l 0.085,0.085 v 0 0 -0.085 h 0.085 l 0.256,-0.256 0.521,-0.341 0.937,-0.861 3.861,-3.255 c 6.947,-6.011 13.467,-12.267 19.988,-19.213 7.893,-8.148 15.01,-16.988 22.212,-25.732 5.745,-7.288 12.011,-14.235 16.894,-22.043 1.979,-3.435 4.553,-8.063 6.947,-12.265 6.605,-11.926 11.148,-23.841 17.329,-36.798 5.063,-11.574 9.18,-22.382 12.01,-33.36 2.574,-8.926 4.372,-17.84 6.171,-27.191 1.893,-11.233 3.265,-22.468 4.637,-33.617 1.193,-9.095 3.171,-18.02 3.767,-27.02 0.171,-3.691 0.35,-9.01 0.606,-13.638 0.766,-13.212 0.511,-25.563 2.66,-39.115 2.053,-12.001 3.767,-22.81 5.574,-33.191 1.543,-8.66 3.171,-17.149 5.234,-25.988 2.309,-10.458 5.225,-21.011 8.66,-31.308 2.915,-8.404 7.032,-16.288 9.946,-24.607 1.202,-3.436 2.83,-8.329 4.373,-12.616 4.637,-12.086 8.584,-23.755 15.181,-35.766 4.893,-8.574 9.266,-16.382 13.553,-24.01 1.202,-1.893 2.489,-3.691 3.776,-5.66 l -10.383,-5.574 -10.117,-5.925 c -2.489,3.946 -5.318,8.319 -8.148,13.723 -1.458,2.745 -3.256,6.436 -5.148,10.467 -3.682,5.83 -7.288,11.745 -11.574,17.149 -4.628,5.489 -9.436,11.063 -13.979,16.467 -1.808,2.489 -4.202,5.925 -6.436,8.925 -6.521,8.319 -12.095,16.724 -19.979,24.787 -7.126,7.117 -13.212,13.809 -19.212,20.244 -4.893,5.404 -9.701,10.723 -14.755,16.212 -6.094,6.596 -12.18,13.288 -18.531,19.638 -5.139,5.234 -11.148,9.777 -16.032,15.18 -2.063,2.319 -4.808,5.66 -7.211,8.66 -7.203,8.149 -12.947,16.553 -20.84,24.957 -7.117,7.297 -12.777,14.669 -18.521,21.701 -4.382,6.095 -8.584,12.096 -13.127,18.361 -4.884,7.713 -10.203,15.181 -14.925,23.063 -3.946,6.437 -9.17,12.181 -12.351,18.787 -1.287,2.829 -3.085,6.691 -4.713,10.116 -4.808,9.872 -8.319,19.478 -13.467,29.937 -2.404,4.551 -4.288,9.094 -6,13.637 -1.808,4.457 -3.436,8.84 -4.638,13.469 -2.403,7.287 -3.681,14.925 -5.148,22.817 -0.426,4.884 -0.852,9.691 -1.278,14.574 0.171,4.979 -0.094,9.862 0.256,14.755 0.341,3.947 0.426,7.979 0.597,12.011 0.52,3.861 1.116,7.798 2.063,11.659 0.767,3.266 2.574,7.468 3.946,11.234 3.852,10.808 9.341,19.817 13.809,30.626 4.287,9.351 8.489,17.67 13.117,25.383 l 3.085,5.319 c 1.288,2.318 2.66,5.233 4.117,7.382 2.404,3.427 3.776,6.001 7.979,8.14 1.117,0.605 2.404,1.031 3.605,1.286 -0.426,1.458 -0.776,3.011 -1.287,4.468 l -2.319,7.117 c -2.489,7.979 -4.969,16.127 -7.543,24.53 -3.095,9.948 -6.18,19.98 -9.606,29.841 -2.83,8.063 -6.265,15.957 -8.925,24.021 -1.031,3.341 -2.489,8.148 -3.776,12.351 -3.937,11.84 -6.861,23.073 -11.916,35.254 -4.287,10.809 -8.234,20.414 -12.095,30.105 -3.171,7.799 -6.266,15.521 -9.521,23.585 -4.032,9.606 -7.978,19.213 -12.521,28.563 -3.606,7.714 -8.319,14.745 -11.84,22.469 -1.457,3.171 -3.426,7.722 -5.234,11.66 -5.309,11.243 -9.776,22.051 -16.552,33.199 -6,9.777 -11.49,18.692 -16.894,27.361 -4.288,7.202 -8.575,14.234 -13.383,21.522 -5.489,8.754 -11.404,17.243 -17.405,25.562 -5.063,6.777 -11.148,12.777 -16.042,19.554 -2.063,2.829 -4.893,6.776 -7.458,10.297 -7.382,9.947 -13.988,19.468 -22.818,28.988 -8.063,8.489 -15.095,15.777 -22.213,23.244 -5.744,6.001 -11.328,12.001 -17.584,17.926 -7.202,7.287 -14.839,14.233 -22.647,20.84 -6.256,5.489 -13.808,9.521 -19.979,14.926 -2.66,2.223 -6.436,5.318 -9.777,8.063 -9.521,7.628 -18.361,14.925 -29.424,21.521 -7.287,3.861 -13.808,7.724 -20.319,11.329 -6.606,2.66 -12.957,5.318 -19.042,7.969 -6.861,3.095 -13.553,6.096 -20.584,9.266 -8.499,3.691 -16.903,7.467 -25.392,10.808 -7.032,2.744 -14.49,4.373 -21.352,7.287 -2.924,1.373 -6.776,3.267 -10.212,4.895 -10.117,4.371 -19.042,9.605 -30.021,13.381 -9.691,3.341 -18.351,6.691 -26.755,10.203 l -5.659,2.404 c -2.404,1.031 -5.66,1.712 -8.063,2.744 -3.862,1.713 -6.691,2.489 -9.351,6.605 -3,4.543 -3.17,11.32 0.597,15.181 1.893,1.884 4.296,3.085 6.947,3.597 0.946,0.265 1.978,0.351 2.924,0.435 3.17,0.256 6.17,-1.627 8.915,-2.999 1.117,-0.605 2.148,-1.116 3.351,-1.468 3.426,-1.106 6.767,-2.139 10.287,-3.255 3.691,-1.202 7.553,-2.66 12.096,-4.543 8.489,-3.606 25.127,-12.437 33.702,-15.787 6.009,-2.223 12.351,-3.766 18.36,-5.999 l 2.404,-0.862 c 14.234,-4.883 27.181,-12.946 40.989,-19.041 11.159,-4.884 18.361,-6.776 27.191,-10.033 3.606,-1.286 7.467,-2.829 12.095,-4.883 8.405,-3.861 25.042,-13.041 33.447,-16.817 6.009,-2.575 12.266,-4.373 18.19,-6.946 l 2.395,-0.938 c 14.073,-5.584 26.85,-14.073 40.317,-21.021 4.202,-2.139 7.799,-3.681 11.234,-5.147 2.139,-0.172 4.457,-0.598 6.255,-1.022 2.745,-0.691 5.404,-1.202 8.063,-1.628 l 6.947,-1.032 c 7.808,-1.202 15.531,-2.403 23.509,-3.69 9.512,-1.457 19.033,-3.001 28.819,-4.543 7.798,-1.116 15.862,-1.202 23.67,-2.489 3.341,-0.69 7.798,-1.542 11.83,-2.318 11.499,-1.969 22.137,-4.629 34.308,-6.001 10.723,-1.202 20.415,-2.659 29.936,-4.116 7.808,-1.202 15.53,-2.403 23.5,-3.691 9.606,-1.458 19.212,-2.829 28.903,-3.946 7.894,-0.937 15.872,-0.681 23.68,-1.799 3.256,-0.511 7.884,-1.202 11.915,-1.883 11.499,-1.458 22.307,-3.606 34.478,-4.382 10.893,-0.511 20.765,-1.373 30.286,-2.31 7.883,-0.605 15.692,-1.287 23.84,-1.893 9.691,-0.938 19.382,-1.458 29.159,-1.798 7.893,-0.341 15.871,0.604 23.755,0.255 3.265,-0.255 7.893,-0.511 11.925,-0.852 11.584,-0.436 22.478,-1.458 34.734,-1.031 5.233,0.34 10.296,0.51 15.189,0.682 0.256,0.946 0.597,1.807 0.937,2.574 2.575,5.659 5.575,9.351 8.575,13.211 7.468,8.916 15.36,16.468 23.765,23.926 l 5.404,4.638 c 2.054,1.713 4.714,3.767 7.543,4.968 3,1.032 5.318,1.723 7.638,2.49 2.309,0.86 4.713,1.116 7.031,1.457 4.032,0.691 9.521,0.946 14.319,0.946 13.724,0.341 26.159,-1.798 40.147,-3.605 12.351,-1.969 23.5,-4.713 33.957,-8.745 8.669,-3.171 16.988,-7.116 25.393,-11.839 9.861,-6.172 19.468,-13.033 27.701,-22.213 1.799,-1.799 3.257,-3.946 4.894,-5.915 1.542,-2.064 3.426,-3.861 4.543,-6.266 1.287,-2.309 2.488,-4.713 3.776,-7.031 1.286,-2.404 1.798,-4.715 2.574,-7.117 1.457,-4.031 2.053,-10.032 2.479,-15.266 0.947,-15.181 -3.852,-29.851 -12.861,-42.627 -7.979,-11.5 -18.267,-18.872 -28.648,-24.021 -8.66,-4.201 -17.585,-7.288 -27.105,-9.171 -11.404,-2.318 -23.064,-2.574 -34.648,-2.063 -9.436,0.861 -19.127,1.288 -28.213,4.714 -3.861,1.201 -8.839,3.691 -13.297,5.84 -12.606,6.255 -22.733,14.573 -33.796,24.095 -9.776,8.404 -17.234,17.585 -23.33,27.276 -1.372,2.148 -2.83,4.287 -3.946,6.605 -1.543,3 -4.117,6.266 -5.404,9.352 -1.107,2.403 -2.054,4.457 -2.745,6.605 -0.767,2.053 -0.937,4.287 -0.511,7.031 -1.457,0 -2.744,-0.084 -4.202,-0.084 -9.947,-0.266 -30.105,1.286 -39.967,1.286 -6.862,-0.18 -13.639,-0.69 -20.5,-0.605 h -2.745 c -16.042,-0.341 -31.989,2.574 -48.115,3.606 -12.872,1.202 -20.755,0.852 -30.711,1.202 -4.117,0.17 -8.575,0.425 -13.809,1.021 -9.861,0.862 -29.67,4.383 -39.446,5.32 -6.777,0.605 -13.638,0.605 -20.415,1.287 l -2.745,0.256 c -15.957,1.116 -31.563,5.147 -47.35,7.467 -12.776,1.969 -20.5,2.224 -30.361,3.256 -4.032,0.34 -8.404,0.946 -13.638,1.808 -9.606,1.542 -29.074,6.085 -38.68,7.458 -6.606,0.775 -13.638,1.542 -20.244,2.232 l -2.659,0.342 c -15.436,1.883 -30.361,6.085 -45.542,9 3.947,-2.309 7.638,-4.373 10.467,-5.745 5.831,-2.829 12.096,-4.883 17.925,-7.798 l 2.404,-1.032 c 13.894,-6.436 26.073,-15.957 39.276,-23.585 10.638,-6.18 17.414,-9.18 25.903,-13.382 3.521,-1.799 7.202,-3.861 11.489,-6.436 4.032,-2.489 9.957,-6.521 15.872,-10.553 5.745,-4.117 11.575,-8.319 15.606,-10.714 5.49,-2.915 11.755,-6.266 17.33,-9.265 l 2.318,-1.202 c 13.553,-7.203 24.872,-18.01 37.478,-26.756 10.117,-7.127 17.064,-10.297 25.043,-15.445 3.265,-2.139 6.776,-4.543 10.808,-7.629 7.553,-5.659 21.872,-18.615 29.595,-24.02 5.139,-3.597 10.979,-7.543 16.118,-11.148 l 2.233,-1.543 c 12.436,-9.01 23.414,-19.988 34.733,-30.445 0.521,-0.521 0.946,-0.862 1.552,-1.373 4.202,-2.744 8.49,-5.574 12.862,-8.404 8.234,-5.404 16.382,-10.723 24.872,-16.212 6.861,-4.202 14.149,-7.808 20.754,-12.351 2.745,-1.893 6.521,-4.638 9.862,-7.032 9.871,-6.606 18.616,-13.298 29.339,-19.733 9.521,-5.915 18.01,-11.148 26.159,-16.202 6.776,-4.382 13.382,-8.669 20.329,-13.126 8.319,-5.149 16.638,-10.204 25.212,-15.521 6.947,-4.117 14.32,-7.468 21.181,-11.584 2.83,-1.799 6.776,-4.373 10.297,-6.607 10.032,-6.17 18.957,-12.69 30.021,-18.436 9.777,-5.148 18.436,-10.032 26.84,-15.01 6.947,-3.947 13.809,-7.809 20.935,-11.926 8.66,-4.798 17.149,-9.861 25.989,-14.233 7.202,-3.606 14.745,-6.352 21.776,-10.202 2.925,-1.638 6.946,-3.947 10.553,-6.01 10.468,-5.404 19.903,-11.234 31.223,-16.383 10.032,-4.543 19.298,-8.744 27.957,-12.691 7.202,-3.436 14.159,-6.776 21.701,-10.382 9.01,-3.853 17.84,-7.714 27.021,-11.746 7.373,-3.171 15.266,-5.063 22.554,-8.063 3.085,-1.372 7.382,-3.255 11.148,-4.893 10.723,-4.628 20.67,-9.427 32.509,-13.117 6.691,-2.234 12.692,-4.287 18.616,-6.266 0.767,0 1.458,0 2.225,-0.34 0.605,-0.171 1.116,-0.597 1.628,-0.947 0.265,-0.085 0.436,-0.17 0.69,-0.255 0.512,1.286 0.852,2.488 1.628,3.604 4.117,7.373 9.776,13.383 16.468,18.352 7.978,6.01 17.243,10.127 27.02,12.267 7.884,1.883 16.979,2.744 24.873,1.03 3.425,-0.605 7.894,-2.148 11.659,-3.604 10.979,-4.203 19.817,-10.288 29.424,-16.979 8.575,-5.915 15.437,-12.181 21.702,-18.616 5.139,-5.233 9.861,-10.628 14.745,-16.117 5.754,-6.605 12.095,-13.383 17.329,-22.307 2.053,-3.683 4.031,-7.714 5.319,-12.181 1.201,-4.457 1.627,-9.342 0.851,-14.064 -0.511,-4.031 -2.564,-9.351 -4.968,-13.382 -3.266,-6.001 -7.809,-10.373 -12.606,-14.148 -4.809,-3.776 -9.956,-6.861 -15.616,-9.777 -9.947,-5.063 -19.979,-7.458 -30.105,-7.808 -3.946,0.17 -7.884,0.35 -11.83,0.436 -3.861,0.596 -7.894,1.192 -11.755,1.798 -9.351,2.139 -18.606,4.978 -27.275,9 -3.597,1.467 -7.203,3.011 -10.724,4.724 -3.596,1.542 -7.031,3.604 -10.116,5.915 -2.745,1.808 -6.086,4.893 -9.001,7.638 -8.669,7.627 -15.011,16.297 -22.222,25.903 -6.598,8.403 -10.894,17.233 -14.319,26.243 l -1.979,6.256 c -0.852,2.574 -2.309,5.841 -2.65,8.67 -0.094,0.596 -0.094,1.021 -0.264,1.628 -4.714,1.883 -11.234,4.543 -17.841,7.287 -6.946,2.745 -14.063,5.659 -18.691,7.468 -6.351,2.223 -13.212,4.543 -19.563,6.775 l -2.649,0.853 c -15.36,5.233 -29.51,13.553 -44.265,20.158 -12,5.233 -19.382,8.063 -28.647,11.83 -3.852,1.638 -7.969,3.437 -12.776,5.755 -9.001,4.117 -26.414,14.745 -35.51,18.946 -6.17,2.925 -12.776,5.319 -18.871,8.414 l -2.479,1.192 c -14.67,7.041 -28.308,15.957 -42.287,24.105 -11.404,6.437 -18.7,9.521 -27.616,14.064 -3.691,1.893 -7.638,4.031 -12.181,6.775 -8.66,5.489 -25.392,16.043 -33.967,21.446 -5.916,3.171 -12.351,6.691 -18.181,9.862 l -2.403,1.286 c -14.319,7.808 -27.105,18.011 -40.744,26.671 -10.979,7.04 -17.925,10.723 -26.67,15.7 -3.521,2.14 -7.373,4.458 -11.839,7.373 -6.341,4.202 -17.319,12.351 -25.809,18.275 10.543,-10.297 19.212,-22.478 29.159,-33.286 8.575,-9.086 13.979,-14.233 20.84,-21.011 2.745,-2.744 5.744,-5.915 8.915,-9.86 6.01,-7.297 16.988,-23.33 22.988,-30.626 4.202,-5.055 9.095,-9.512 13.212,-14.661 l 1.713,-1.977 c 10.117,-11.66 17.329,-25.469 26.244,-38.075 7.032,-10.212 12.096,-15.701 18.096,-23.159 2.319,-3.095 4.893,-6.521 7.723,-10.809 5.234,-7.808 14.414,-24.871 19.724,-32.595 3.861,-5.233 7.893,-10.552 11.755,-15.691 l 1.542,-2.148 c 9.01,-12.435 15.266,-26.67 23.074,-39.796 6.35,-10.639 11.148,-16.384 16.468,-24.275 2.139,-3.257 4.458,-6.777 7.031,-11.148 4.809,-8.064 13.042,-25.469 18.011,-33.447 l 10.894,-16.127 1.542,-2.225 c 8.404,-12.786 14.244,-27.02 21.702,-40.316 0.776,-1.288 1.372,-2.32 2.063,-3.427 2.31,-1.032 4.543,-2.659 6.512,-4.117 1.032,-0.861 2.148,-1.638 3.265,-2.318 3.427,-1.798 6.691,-3.69 10.202,-5.574 3.606,-2.063 7.468,-4.373 11.926,-7.372 8.318,-5.489 24.36,-18.105 32.765,-23.245 5.744,-3.351 12.266,-7.041 18.011,-10.296 l 2.488,-1.373 c 13.894,-8.234 26.245,-19.042 39.532,-28.308 10.809,-7.457 17.926,-10.979 26.51,-16.203 3.511,-2.148 7.287,-4.551 11.744,-7.638 8.063,-5.829 23.765,-18.701 31.999,-24.36 5.659,-3.511 12,-7.458 17.575,-10.979 l 2.318,-1.457 c 13.724,-8.831 25.393,-20.235 38.169,-30.276 10.373,-7.979 17.064,-12.096 25.469,-17.755 3.435,-2.31 7.041,-4.969 11.158,-8.404 7.798,-6.17 22.467,-20.244 30.19,-26.415 5.489,-4.202 11.404,-7.978 16.638,-12.351 l 2.225,-1.628 c 12.956,-9.777 23.595,-22.307 35.339,-33.286 9.436,-9.086 15.957,-13.628 23.499,-20.234 3.086,-2.745 6.437,-5.745 10.212,-9.521 7.203,-6.776 19.979,-22.563 27.182,-29.339 4.808,-4.628 10.127,-9.606 14.925,-14.234 l 2.063,-1.883 c 5.915,-5.489 10.808,-11.925 15.862,-18.275 4.894,-6.426 9.956,-12.862 14.84,-19.212 8.149,-10.032 13.893,-15.521 20.328,-23.065 2.745,-3.18 5.489,-6.605 8.831,-10.808 3.01,-3.947 7.041,-10.297 11.243,-16.468 4.202,-6.266 8.319,-12.436 11.063,-16.553 l 12.777,-16.127 1.627,-2.234 c 4.723,-6.521 8.755,-13.467 12.786,-20.5 3.853,-7.117 7.373,-14.404 11.404,-21.351 6.516,-11.235 10.718,-17.756 16.036,-26.245 z M 523.208,1301.919 c -2.063,-3.861 -5.839,-9.521 -8.925,-15.266 -3.341,-5.745 -6.266,-11.574 -7.638,-15.606 -2.309,-5.489 -3.085,-11.329 -4.628,-16.902 -0.17,-0.682 -0.426,-1.458 -0.511,-2.225 -0.52,-3.265 -1.202,-6.521 -1.978,-9.776 l -1.798,-9.691 c -0.861,-6.521 -1.628,-13.213 -0.861,-19.902 0.265,-5.32 1.637,-9.607 2.66,-13.553 0.946,-3.862 2.66,-7.373 4.032,-11.32 1.202,-3.341 2.489,-6.861 4.116,-11.148 0.606,-1.979 1.458,-4.543 2.404,-7.468 1.031,-2.744 2.148,-5.915 3.341,-9 2.148,-6.181 4.893,-12.266 6.861,-16.213 2.745,-5.403 6.436,-10.382 9.521,-15.605 l 1.287,-2.148 c 3.691,-6.257 7.118,-12.267 10.297,-18.607 3,-6.436 6.691,-12.53 10.458,-18.53 6.18,-9.606 11.584,-14.404 17.159,-21.267 2.489,-2.744 5.063,-5.753 7.978,-9.436 5.319,-7.031 15.947,-21.786 22.042,-28.308 4.287,-4.457 9.085,-8.404 13.467,-12.861 l 1.798,-1.723 c 4.799,-4.628 9.181,-9.691 13.468,-14.745 -0.17,1.107 -0.256,2.225 -0.17,3.256 0.255,1.202 2.915,3.605 3.596,4.628 3.18,4.297 3.521,1.893 7.638,0.606 5.83,-1.979 7.893,-8.66 9,-14.841 -0.681,-4.201 -3,-8.574 -6.341,-9.776 0.597,-0.691 1.202,-1.372 1.799,-2.063 7.978,-8.745 13.638,-13.203 20.244,-19.553 2.745,-2.574 5.66,-5.489 8.915,-9.18 3.266,-3.597 7.979,-9.606 12.606,-15.521 -2.744,10.126 -5.054,20.414 -7.458,30.531 -3.776,14.67 -5.83,22.733 -8.746,34.138 -1.116,4.552 -1.893,9.606 -2.83,15.615 -0.776,5.575 -1.458,14.235 -1.893,22.724 -0.511,8.575 -0.852,17.073 -1.372,22.563 -1.032,7.97 -1.969,15.096 -2.916,22.895 l -0.34,3.095 c -2.148,17.84 -1.628,35.595 -4.117,53.085 -2.148,13.979 -4.978,21.956 -8.234,32.168 -1.373,4.202 -2.745,8.745 -4.458,14.149 -1.552,5.147 -3.946,12.776 -6.691,20.414 -2.745,7.723 -5.925,15.18 -8.404,19.894 -3.521,6.521 -7.723,12.701 -11.669,18.871 l -1.713,2.49 c -9.606,14.319 -18.531,29.414 -30.021,42.541 -9.436,10.467 -16.127,15.777 -24.446,22.469 -1.032,0.86 -2.139,1.721 -3.256,2.573 l -1.712,1.458 -0.265,0.256 -0.086,0.094 h -0.085 v 0 0.086 0 0 0 0.084 l -0.425,0.342 -0.947,0.767 v 0 0 0.094 l -0.852,0.682 v 0.085 l -0.35,0.17 -0.256,0.086 -5.148,0.946 v 0 l -0.17,0.086 h -0.085 -0.085 v 0 h -0.085 v 0 0 0 0.17 h -0.341 l -0.255,0.085 h -0.265 l -0.341,-0.085 -0.255,-0.086 -0.511,-0.17 -0.605,-0.256 c -2.404,-1.372 -4.798,-2.744 -7.373,-4.201 -0.426,-0.436 -1.288,-0.521 -1.893,-0.946 -0.682,-0.426 -1.543,-1.032 -2.394,-1.372 -0.171,-0.172 -0.691,-0.172 -1.032,-0.256 -0.596,-1.202 -1.116,-2.404 -1.713,-3.691 -1.722,-3.176 -3.606,-6.782 -5.744,-10.899 z m 244.09,508.359 0.521,-10.382 c 2.309,-0.426 4.542,-1.799 6.691,-3.606 l 2.31,-2.053 c 2.318,-2.404 3.35,-6.001 4.467,-9.182 0.34,-1.201 1.022,-2.395 1.713,-3.596 l 3.085,-4.808 c 0.946,-1.629 2.233,-3.171 3.351,-4.798 2.309,-3.437 5.054,-6.862 8.234,-11.149 3.085,-3.776 7.713,-9.606 13.032,-15.01 2.66,-2.574 5.575,-4.979 8.149,-7.298 2.744,-1.883 5.233,-3.681 7.372,-5.139 3.01,-1.637 6.095,-3.095 9.18,-4.467 3.171,-1.202 6.351,-2.311 9.436,-3.427 l 2.659,-0.776 5.575,-1.712 5.745,-1.373 c 3.776,-1.116 7.637,-1.542 11.489,-2.404 3.862,-0.596 7.808,-0.766 11.755,-1.116 3.946,0.18 7.893,0 11.84,0.606 12.691,1.798 19.808,5.318 28.042,9.861 3.436,1.883 6.946,4.117 10.894,7.032 3.69,2.574 8.83,7.031 12.862,12.351 4.201,5.148 6.265,11.584 6.945,15.871 0.946,6.085 -0.596,12.265 -1.883,18.266 -0.17,0.862 -0.596,1.628 -0.861,2.404 -0.597,1.799 -1.192,3.511 -1.798,5.403 -0.767,1.543 -1.457,3.001 -2.224,4.629 l -1.032,2.403 -1.542,2.225 -2.915,4.637 c -4.809,5.831 -10.212,11.66 -17.073,15.947 -10.894,7.297 -18.872,9.521 -28.479,12.702 -4.031,1.201 -8.233,2.744 -13.552,4.115 -4.884,1.544 -12.351,3.597 -19.894,5.234 -7.553,1.713 -15.266,2.565 -20.244,2.829 -7.032,0.086 -13.893,-0.86 -20.584,-1.722 l -2.574,-0.511 c -3.852,-0.597 -7.884,-1.714 -10.808,-2.404 -1.373,-0.17 -2.225,-0.853 -3.341,-1.458 -1.202,-0.851 -3,-2.139 -4.628,-3.255 -6.436,-4.808 -12.871,-10.297 -18.445,-16.298 -4.458,-4.723 -7.543,-9.096 -9.171,-12.606 -0.265,-0.69 -0.436,-1.202 -0.606,-1.628 0,0.256 0,0.598 0,1.107 0,1.979 -2.83,4.468 -3.691,4.638 v -0.082 z m 431.851,-495.838 c 1.373,-3 2.829,-6.256 4.543,-10.117 1.893,-3.436 4.297,-9.01 7.553,-14.149 3.17,-5.148 6.861,-10.212 9.861,-12.956 3.861,-4.031 8.744,-6.947 13.127,-10.288 l 1.883,-1.202 c 5.489,-3.52 10.809,-7.202 16.553,-10.381 5.66,-3.257 11.585,-6.087 17.926,-7.714 10.127,-2.916 16.638,-2.063 24.531,-1.894 3.085,0.352 6.35,0.606 10.382,1.372 3.597,0.521 9.341,1.809 14.66,3.947 5.404,2.148 10.212,5.318 12.606,7.808 3.521,3.597 5.489,7.894 6.436,11.83 l 0.34,1.638 c 0.436,4.713 0,9.521 -2.309,14.745 -2.318,5.319 -6.18,10.723 -10.723,16.042 -7.468,8.745 -12.606,13.297 -18.872,19.127 -2.574,2.403 -5.318,4.979 -8.659,8.064 -3.085,2.829 -7.553,7.286 -12.437,11.232 -4.808,3.947 -10.041,7.288 -13.638,9.011 -5.063,2.394 -10.468,3.767 -15.701,4.969 -0.682,0.17 -1.458,0.17 -2.139,0.35 -6.265,1.108 -11.584,1.543 -17.84,0.682 -6.01,-0.775 -12.181,-2.574 -17.755,-5.574 -8.84,-5.148 -12.691,-10.297 -16.382,-16.468 -0.086,-0.085 -0.172,-0.256 -0.256,-0.426 2.053,-0.606 4.201,-1.117 5.915,-1.637 4.287,-1.373 7.202,-2.395 10.723,-5.916 3.861,-4.032 5.574,-8.829 2.574,-11.574 -1.542,-1.287 -3.861,-2.148 -6.521,-2.574 l -2.914,-0.341 c -3.436,-0.35 -6.861,1.107 -9.946,2.395 -1.202,0.521 -2.49,0.945 -3.777,1.287 -0.085,0.086 -0.255,0.086 -0.34,0.086 0.255,-0.428 0.426,-0.939 0.596,-1.374 z m 371.98,-690.781 c -4.799,8.319 -9.521,16.723 -14.755,24.786 -4.457,6.521 -9.776,12.436 -13.894,19.042 -1.712,2.745 -4.116,6.691 -6.255,10.117 -6.437,9.521 -11.5,19.127 -19.469,28.393 -6.776,8.49 -12.87,16.042 -18.786,23.5 -4.808,6.265 -9.436,12.436 -14.67,18.701 -6.085,7.458 -12.009,15.096 -18.691,22.127 -5.489,5.745 -11.499,10.979 -16.818,16.724 -2.139,2.574 -5.139,6 -7.798,9.095 -7.638,8.745 -14.414,17.319 -23.509,25.639 -7.97,7.297 -15.267,13.893 -22.128,20.755 -5.574,5.404 -11.233,10.893 -17.063,16.562 -7.032,6.862 -14.234,13.458 -21.701,19.809 -6.001,5.148 -12.947,9.35 -18.872,14.584 -2.395,2.31 -5.829,5.489 -8.83,8.234 -8.84,7.713 -16.468,15.691 -26.499,22.979 -8.926,6.35 -16.647,12.521 -24.361,18.446 -6.266,4.969 -12.351,9.862 -18.872,14.925 -7.722,6 -15.436,12.086 -23.499,17.84 -6.605,4.628 -13.893,8.234 -20.244,13.033 -2.574,2.147 -6.256,4.978 -9.521,7.553 -9.521,7.031 -17.67,14.574 -28.298,21.095 -9.351,5.83 -17.584,11.49 -25.647,16.979 -6.605,4.637 -13.127,9.095 -19.902,13.902 -8.14,5.489 -16.203,11.32 -24.607,16.554 -6.776,4.287 -14.244,7.628 -20.85,12.17 -2.745,1.979 -6.598,4.724 -9.947,7.212 -9.775,6.691 -18.351,13.809 -29.159,20.148 -2.233,1.288 -4.201,2.49 -6.266,3.777 3.862,-7.714 8.149,-16.298 11.234,-21.181 l 10.809,-16.298 1.458,-2.148 c 8.318,-12.776 14.243,-27.01 21.7,-40.308 0.862,-1.373 1.543,-2.575 2.319,-3.861 -0.511,4.628 0,8.319 2.83,10.117 2.488,0.351 8.659,-4.969 15.521,-12 6.094,-7.383 12.265,-16.819 14.669,-25.223 0.426,-1.543 -0.256,-4.798 -1.288,-5.404 -2.318,-1.287 -6,-2.479 -7.722,-1.542 -1.192,0.69 -2.395,1.542 -3.597,2.403 0,-0.085 0.085,-0.085 0.085,-0.17 4.628,-8.149 12.947,-25.393 17.84,-33.276 l 10.894,-16.212 1.458,-2.233 c 8.403,-12.692 14.404,-26.841 21.956,-40.138 6.086,-10.723 10.639,-16.638 15.947,-24.446 2.148,-3.256 4.467,-6.776 6.956,-11.149 4.713,-8.063 13.203,-25.298 18.096,-33.191 l 10.979,-16.127 1.458,-2.139 c 8.489,-12.701 14.659,-26.85 22.297,-40.062 6.266,-10.628 10.809,-16.553 16.043,-24.437 2.053,-3.266 4.287,-6.776 7.031,-11.073 4.799,-8.054 13.467,-25.127 18.521,-33.021 l 11.063,-16.033 1.458,-2.148 c 8.583,-12.606 15.009,-26.585 22.732,-39.797 6.266,-10.638 10.893,-16.467 16.212,-24.361 2.14,-3.171 4.458,-6.776 7.032,-11.063 4.628,-8.148 13.724,-25.042 18.786,-32.851 3.767,-5.404 7.458,-10.628 11.233,-16.032 l 1.458,-2.148 c 8.66,-12.521 15.351,-26.5 23.244,-39.542 6.436,-10.458 11.063,-16.382 16.382,-24.18 2.139,-3.266 4.373,-6.777 7.118,-11.064 4.798,-8.063 13.893,-25.051 19.212,-32.765 3.69,-5.234 7.543,-10.723 11.234,-15.957 l 1.542,-2.139 c 4.373,-6.265 8.233,-12.871 12.095,-19.477 3.947,-6.597 7.809,-13.288 11.67,-19.809 6.342,-10.638 10.714,-16.638 15.862,-24.617 1.031,-1.627 2.147,-3.34 3.266,-5.233 1.106,-1.883 3.085,-4.373 4.287,-6.606 2.224,-3.596 6.17,-11.575 6,-14.489 -0.171,-3.171 -0.255,-5.234 -2.489,-5.404 -1.032,0 -5.489,3 -6.947,4.117 -2.223,1.712 -4.798,5.744 -6.34,8.404 -1.468,2.403 -2.84,4.628 -4.383,6.776 l -3.853,5.489 c -4.381,6.265 -8.668,12.521 -13.126,18.957 l -15.956,23.244 c -4.373,6.341 -9.437,12.18 -13.553,18.521 -1.714,2.745 -4.117,6.521 -6.171,9.861 -6.086,9.436 -11.319,18.617 -18.096,28.308 -6.096,8.575 -11.234,16.553 -16.298,24.361 -4.031,6.426 -7.978,12.862 -12.095,19.468 -5.063,7.979 -10.117,15.957 -15.096,23.755 -4.287,6.436 -9.35,12.266 -13.297,18.787 -1.628,2.745 -3.852,6.606 -5.915,9.947 -5.83,9.521 -10.638,18.957 -17.415,28.648 -6.085,8.574 -11.063,16.638 -15.861,24.531 -3.946,6.521 -7.894,12.947 -11.925,19.638 -4.883,8.063 -9.861,16.042 -14.669,24.02 -4.203,6.426 -9.172,12.351 -13.032,18.872 -1.543,2.745 -3.777,6.682 -5.66,10.117 -5.744,9.606 -10.297,19.127 -16.987,28.903 -5.831,8.66 -10.884,16.638 -15.607,24.617 -3.86,6.606 -7.628,13.032 -11.574,19.808 -4.723,8.064 -9.436,16.212 -14.414,24.105 -4.117,6.521 -9.001,12.436 -12.861,18.957 -1.543,2.83 -3.606,6.776 -5.575,10.202 -5.573,9.691 -9.956,19.212 -16.553,29.074 -5.84,8.67 -10.723,16.733 -15.445,24.787 -3.852,6.521 -7.628,13.041 -11.489,19.818 -4.713,8.063 -9.352,16.211 -14.234,24.18 -4.031,6.436 -9.01,12.446 -12.787,19.042 -1.456,2.745 -3.595,6.691 -5.403,10.212 -5.574,9.691 -9.861,19.297 -16.383,29.159 -5.744,8.745 -10.628,16.809 -15.266,24.872 -3.767,6.606 -7.542,13.042 -11.489,19.818 -4.628,8.149 -9.181,16.288 -14.148,24.267 -2.234,3.605 -4.723,7.117 -7.213,10.638 0.691,-4.799 0.776,-9.606 -0.255,-13.809 -0.256,-1.286 -2.14,-3.521 -3.256,-3.606 -2.403,-0.17 -6.01,0.086 -7.031,1.372 -9.351,10.979 -11.499,33.627 -2.659,38.946 -4.373,8.233 -8.319,16.553 -13.895,24.957 -5.754,8.744 -10.637,16.894 -15.266,24.871 -2.744,4.894 -5.489,9.692 -8.328,14.585 -0.512,0.767 -1.107,1.628 -1.628,2.745 -0.085,0.17 -0.085,0.34 -0.17,0.51 -0.426,0.691 -0.767,1.373 -1.202,2.064 -1.799,3.17 -3.597,6.17 -5.404,9.34 0.691,-8.744 1.458,-18.521 2.574,-24.266 1.287,-6.351 3.351,-12.616 4.553,-18.957 l 0.596,-2.488 c 3.257,-14.84 3.521,-30.276 6.171,-45.286 2.063,-12.096 4.552,-19.128 6.861,-28.222 0.946,-3.768 1.808,-7.884 2.745,-12.777 1.893,-9.181 3.946,-28.213 6.18,-37.223 1.628,-6.265 4.032,-12.436 5.659,-18.616 l 0.691,-2.479 c 4.457,-14.584 5.915,-29.85 9.427,-44.69 2.924,-11.924 5.489,-18.871 8.839,-27.701 1.287,-3.691 2.575,-7.723 3.947,-12.521 2.488,-9.01 5.915,-27.881 8.744,-36.797 1.799,-6.18 4.979,-12.01 7.203,-18.096 l 0.946,-2.404 c 5.744,-14.064 8.318,-29.329 12.955,-43.829 3.853,-11.66 7.885,-18.095 11.746,-26.754 1.543,-3.521 3.255,-7.382 4.978,-12.096 1.628,-4.373 3.683,-11.234 5.831,-18.01 1.968,-6.862 4.543,-13.553 6.52,-17.755 2.746,-5.924 6.342,-11.414 9.086,-17.244 l 1.202,-2.404 c 3.521,-6.776 6.181,-13.894 8.755,-21.096 2.479,-7.287 5.574,-14.234 8.83,-21.181 5.403,-11.063 9.861,-17.159 14.669,-25.307 1.969,-3.341 4.031,-7.032 6.171,-11.575 4.031,-8.489 12.352,-25.733 17.073,-33.882 3.426,-5.489 7.543,-10.637 10.979,-16.126 l 1.456,-2.224 c 3.768,-6.521 7.714,-13.042 11.66,-19.648 3.776,-6.691 7.382,-13.458 11.499,-19.894 6.861,-10.297 11.745,-16.042 17.755,-23.329 2.479,-3 5.224,-6.265 8.234,-10.297 5.659,-7.458 15.861,-23.84 21.862,-31.127 1.978,-2.574 4.211,-4.979 6.436,-7.297 2.403,-2.31 4.808,-4.543 7.031,-6.862 l 1.809,-1.883 c 10.798,-10.808 19.212,-23.84 29.158,-35.424 8.234,-9.18 14.84,-13.203 21.957,-19.468 3,-2.488 6.171,-5.318 9.777,-8.83 3.341,-3.351 8.232,-8.584 13.211,-13.818 4.713,-5.395 10.373,-9.776 13.979,-12.777 5.148,-3.596 10.894,-7.628 16.031,-11.233 l 2.063,-1.543 c 6.172,-4.458 11.925,-9.521 17.585,-14.669 5.659,-5.234 11.745,-9.947 17.84,-14.575 9.861,-7.382 16.553,-10.638 24.786,-15.446 3.341,-1.968 7.032,-4.202 11.234,-7.032 7.894,-5.233 23.499,-16.638 31.648,-21.436 5.574,-2.839 11.925,-6.095 17.5,-8.924 l 2.403,-1.288 c 13.544,-7.117 25.988,-16.553 39.105,-24.531 10.638,-6.341 17.585,-9.256 26.074,-13.638 3.436,-1.713 7.202,-3.767 11.584,-6.426 8.054,-4.893 24.352,-15.616 32.671,-20.244 5.659,-2.83 12.01,-6 17.669,-8.84 l 2.319,-1.192 c 6.861,-3.691 13.382,-7.893 19.808,-12.181 6.521,-4.467 12.522,-8.669 19.128,-13.127 10.467,-6.691 17.243,-10.117 25.308,-15.18 3.34,-2.139 6.945,-4.458 11.148,-7.373 7.713,-5.404 22.553,-18.096 30.53,-23.159 5.405,-3.777 10.895,-7.638 16.299,-11.319 l 2.148,-1.552 c 5.488,-3.767 10.372,-8.139 15.18,-12.691 -0.085,0.17 -0.18,0.341 -0.265,0.521 -4.543,6.946 -9.171,13.723 -12.862,21.01 -1.457,3.085 -3.605,7.373 -5.403,11.148 -5.404,10.808 -9.001,21.275 -14.49,32.766 -4.722,10.202 -8.234,19.723 -11.755,28.903 -2.999,7.637 -5.233,15.266 -7.978,23.159 l -9.351,28.298 c -2.574,7.638 -6.171,15.01 -8.405,22.648 -0.851,3.255 -2.053,7.893 -2.999,11.839 -3.256,11.404 -5.319,22.127 -9.01,34.128 -3.256,10.552 -5.831,20.159 -8.055,29.68 -1.893,7.723 -3.775,15.436 -5.668,23.414 -2.311,9.521 -4.543,19.127 -7.203,28.563 -2.055,7.628 -5.319,15.01 -7.202,22.724 -0.69,3.18 -1.628,7.723 -2.488,11.754 -3.001,11.233 -4.714,22.042 -8.575,33.626 -3.605,10.117 -6.266,19.723 -8.84,28.904 -2.225,7.542 -4.543,15.01 -6.861,22.723 -2.649,9.351 -6,18.361 -9.341,27.361 -2.745,7.288 -6.947,14.064 -9.776,21.276 -1.117,3.085 -2.66,7.373 -4.032,11.148 -4.553,10.543 -7.894,20.84 -13.723,31.393 -5.489,9.171 -9.692,17.925 -14.244,26.329 -3.592,6.948 -7.283,13.725 -11.06,20.842 z" style="fill:#b8e5e0;fill-opacity:1;fill-rule:nonzero;stroke:none" id="path64"/>
                        </g>
                        <g id="g66">
                          <path d="m 770.904,1804.269 c 0,0.085 0.085,0.255 0.085,0.35 0,-0.776 -0.085,-0.521 -0.085,-0.35 z" style="fill:#b8e5e0;fill-opacity:1;fill-rule:nonzero;stroke:none" id="path68"/>
                        </g>
                        <g id="g70">
                          <path d="m 1595.235,262.487 c -5.66,3.776 -9.862,14.925 -13.383,27.105 -1.201,3.937 -2.574,9.085 -2.915,12.862 -0.17,2.139 1.714,5.148 2.054,6.606 1.808,6.085 2.745,1.883 6.862,-2.319 6.009,-6 9.35,-18.872 12.009,-30.276 0.426,-8.404 -0.681,-16.723 -4.627,-13.978 z" style="fill:#b8e5e0;fill-opacity:1;fill-rule:nonzero;stroke:none" id="path72"/>
                        </g>
                        <g id="g74">
                          <path d="m 1561.353,346.708 c -5.575,16.297 -11.149,32.339 -16.553,48.031 -10.553,27.967 -10.032,26.5 -20.415,54.211 -1.542,4.798 -4.287,11.404 -3.605,15.606 0.521,2.915 2.744,4.202 4.212,5.744 0.852,0 1.798,0 2.829,-0.426 2.916,-1.287 5.83,-6.605 8.234,-11.234 6.512,-13.467 10.979,-28.222 15.266,-42.711 2.574,-8.319 4.287,-15.275 7.884,-23.074 7.808,-16.809 13.987,-29.159 17.84,-47.094 -1.278,-3.171 -1.542,-7.884 -3.597,-9.511 -3.691,-3.009 -7.894,3.341 -12.095,10.458 z" style="fill:#b8e5e0;fill-opacity:1;fill-rule:nonzero;stroke:none" id="path76"/>
                        </g>
                        <g id="g78">
                          <path d="m 1513.408,482.907 c -1.032,0.861 -5.063,6.777 -5.916,8.499 l -2.318,4.543 -3.511,6.946 -3.862,7.894 -0.085,0.085 -5.925,12.947 c -0.085,0.17 -4.627,10.212 -4.627,10.212 -3.862,8.489 -6.947,15.436 -10.118,22.298 -3.18,6.776 -6.521,13.382 -11.063,21.445 -14.925,25.298 -29.679,50.17 -46.063,74.01 -16.382,23.849 -33.881,47.093 -54.115,68.359 -6.437,6.777 -13.903,13.297 -18.616,20.84 -10.468,15.786 -24.957,25.137 -38.766,37.828 l -0.086,0.085 c -5.753,5.575 -11.754,11.064 -17.072,17.074 -2.489,2.745 -8.489,10.714 -5.574,12.691 2.148,1.542 6.945,4.713 9.776,3.512 5.659,-2.479 14.669,-11.319 19.382,-15.692 l 5.755,-5.404 c 13.032,-11.925 25.809,-24.275 38.424,-36.796 l 18.437,-19.212 17.755,-19.894 c 3.776,-3.947 6.521,-8.925 9.692,-13.042 3.86,-5.064 7.372,-9.692 10.637,-13.979 3.086,-4.373 5.915,-8.49 8.659,-12.436 2.831,-3.862 5.489,-7.638 8.234,-11.319 2.574,-3.776 5.148,-7.467 7.894,-11.414 5.744,-7.969 10.552,-15.436 14.669,-22.723 4.117,-7.203 8.14,-13.894 11.574,-20.925 3.522,-7.042 7.117,-13.988 10.895,-21.361 3.69,-7.458 7.722,-15.351 12.436,-24.02 3,-6 9.265,-20.669 12.01,-26.84 0.768,-2.404 1.97,-5.83 3.086,-9.095 0.776,-1.712 1.542,-3.255 2.148,-4.542 l 3.425,-7.032 c 1.373,-2.915 2.745,-5.83 4.203,-8.84 l 4.372,-9.776 1.373,-2.915 c 0.52,-1.288 1.978,-6.436 1.978,-7.543 -0.171,-3.606 -1.628,-5.924 -3.096,-6.521 -1.544,-0.606 -3.257,-0.256 -6.001,2.053 z" style="fill:#b8e5e0;fill-opacity:1;fill-rule:nonzero;stroke:none" id="path80"/>
                        </g>
                        <g id="g82">
                          <path d="m 1172.734,917.929 c -17.925,13.988 -34.827,29.51 -44.945,51.296 6.001,3.776 10.724,1.713 14.755,-1.542 14.67,-11.244 28.393,-22.904 39.371,-38.595 4.969,-7.467 15.947,-15.786 10.628,-21.872 -7.117,-8.15 -13.374,5.574 -19.809,10.713 z" style="fill:#b8e5e0;fill-opacity:1;fill-rule:nonzero;stroke:none" id="path84"/>
                        </g>
                        <g id="g86">
                          <path d="m 1255.158,838.42 c -22.297,10.808 -56.87,41.435 -44.169,53.18 5.318,4.893 38.51,-24.872 51.456,-45.201 1.202,-1.883 1.894,-5.745 0.862,-6.426 -2.064,-1.373 -5.745,-2.745 -8.149,-1.553 z" style="fill:#b8e5e0;fill-opacity:1;fill-rule:nonzero;stroke:none" id="path88"/>
                        </g>
                        <g id="g90">
                          <path d="m 1395.559,401.175 c -6.086,-0.085 -13.808,6.085 -21.181,13.638 -2.404,2.404 -5.403,5.66 -6.947,8.49 -0.86,1.542 -0.255,4.893 -0.35,6.265 -0.341,5.83 1.894,2.915 6.956,1.883 7.288,-1.457 14.489,-9.606 20.49,-16.979 3.181,-6.35 5.234,-13.297 1.032,-13.297 z" style="fill:#b8e5e0;fill-opacity:1;fill-rule:nonzero;stroke:none" id="path92"/>
                        </g>
                        <g id="g94">
                          <path d="m 1352.082,447.313 c -2.575,-4.373 -8.329,-1.458 -14.159,2.233 l -14.404,15.521 -14.159,15.872 c -8.318,9.095 -12.265,13.468 -16.287,17.755 -4.031,4.287 -7.724,9 -15.701,18.521 -2.575,3.436 -6.436,8.063 -6.436,11.925 0,2.66 1.978,4.628 3.265,6.606 0.938,0.341 1.798,0.682 2.916,0.682 3.169,0.085 6.945,-3.256 10.03,-6.171 8.926,-8.574 15.617,-19.297 23.33,-28.988 4.287,-5.66 7.638,-10.553 12.956,-15.095 11.49,-9.947 20.67,-16.809 29.245,-29.254 -0.257,-3.171 0.776,-7.118 -0.596,-9.607 z" style="fill:#b8e5e0;fill-opacity:1;fill-rule:nonzero;stroke:none" id="path96"/>
                        </g>
                        <g id="g98">
                          <path d="m 1067.749,941.343 c -9.437,-3.341 -7.884,9.18 -10.809,15.275 -8.404,16.723 -14.148,34.393 -13.373,53.946 6.606,0.682 9.521,-2.489 11.49,-6.351 6.861,-13.468 12.436,-27.191 14.328,-42.712 0.768,-7.286 5.395,-17.584 -1.636,-20.158 z" style="fill:#b8e5e0;fill-opacity:1;fill-rule:nonzero;stroke:none" id="path100"/>
                        </g>
                        <g id="g102">
                          <path d="m 1093.311,865.696 c -2.318,-0.426 -6.001,-0.255 -7.457,1.458 -3.351,4.032 -6.691,9.265 -9.702,14.924 -2.744,5.66 -4.969,11.84 -6.426,17.5 -2.914,11.489 -2.318,21.446 5.404,23.5 3.256,0.861 8.148,-7.287 12.18,-18.095 2.055,-5.404 3.938,-11.405 5.31,-17.414 1.553,-5.915 2.66,-11.745 2.925,-16.723 0.084,-1.8 -1.033,-4.98 -2.234,-5.15 z" style="fill:#b8e5e0;fill-opacity:1;fill-rule:nonzero;stroke:none" id="path104"/>
                        </g>
                        <g id="g106">
                          <path d="m 1260.477,542.002 c -1.117,0.435 -5.926,4.117 -6.946,5.404 l -2.83,3.265 -4.287,4.884 -4.723,5.839 v 0.085 l -7.118,9.606 c 0,0 -1.456,1.884 -2.83,3.767 -1.371,1.978 -2.744,3.861 -2.744,3.861 -8.925,13.297 -13.041,21.787 -22.478,34.223 -7.542,9.862 -13.979,20.414 -20.67,30.796 l -9.69,15.692 -9,16.042 c -5.925,10.808 -11.926,21.437 -17.415,32.5 -5.489,10.978 -11.148,21.872 -17.149,32.765 -3.945,6.862 -7.893,14.159 -9.606,21.531 -3.179,15.691 -12.87,26.67 -18.956,41.169 l -0.086,0.086 c -2.658,6.18 -5.317,12.351 -7.296,18.786 -0.938,2.915 -2.564,11.063 0.776,11.66 2.488,0.52 8.063,1.627 9.946,-0.171 3.862,-3.606 7.638,-13.117 9.862,-17.925 l 2.658,-5.83 c 5.84,-13.212 12.701,-25.989 19.042,-38.945 6.266,-13.032 13.127,-25.809 20.074,-38.424 2.139,-3.852 3.597,-8.234 5.403,-12.086 9.002,-18.531 15.437,-30.021 23.501,-43.232 8.319,-13.723 14.925,-24.701 20.925,-35.936 6.01,-11.319 12.691,-22.297 22.128,-35.339 3.265,-4.457 9.86,-15.776 13.041,-20.329 1.031,-1.798 2.488,-4.372 3.861,-6.861 0.938,-1.202 1.798,-2.31 2.479,-3.256 l 4.031,-5.063 4.979,-6.341 5.404,-6.946 1.628,-2.148 c 0.69,-0.861 2.66,-4.798 2.744,-5.831 0.17,-3.18 -0.86,-5.744 -2.318,-6.861 -1.457,-1.118 -3.34,-1.46 -6.34,-0.437 z" style="fill:#b8e5e0;fill-opacity:1;fill-rule:nonzero;stroke:none" id="path108"/>
                        </g>
                        <g id="g110">
                          <path d="m 600.397,1093.935 c 0.937,0.085 1.883,0.255 2.83,0.085 2.745,-0.256 4.543,-3.001 6,-5.404 4.032,-6.946 5.745,-15.01 7.723,-22.733 1.117,-4.457 1.798,-8.232 4.458,-12.01 5.66,-8.233 10.212,-14.318 11.584,-24.096 -1.979,-2.233 -3.095,-5.148 -5.669,-6.691 -4.628,-2.829 -8.234,-0.085 -11.49,3.342 -3,8.498 -6.001,17.072 -9.351,25.562 -5.745,14.755 -5.745,13.979 -11.149,28.904 -0.766,2.659 -2.053,6.351 -0.425,8.924 1.117,1.797 3.596,2.914 5.489,4.117 z" style="fill:#b8e5e0;fill-opacity:1;fill-rule:nonzero;stroke:none" id="path112"/>
                        </g>
                        <g id="g114">
                          <path d="m 598.77,1114.859 2.053,-5.233 0.691,-1.628 c 0.171,-0.69 0.426,-3.521 0.171,-4.202 -1.032,-2.233 -3.095,-3.861 -4.723,-4.373 -1.713,-0.604 -3.341,-0.604 -5.574,0.512 -0.767,0.34 -3.427,3.435 -3.862,4.373 l -1.192,2.488 -1.893,3.776 c -0.682,1.372 -1.287,2.829 -1.884,4.372 l 14.32,4.714 z" style="fill:#b8e5e0;fill-opacity:1;fill-rule:nonzero;stroke:none" id="path116"/>
                        </g>
                        <g id="g118">
                          <path d="m 557.856,1246.261 c 5.66,-8.405 10.202,-16.989 10.543,-27.275 0.095,-4.894 3.605,-11.415 -3,-13.554 -8.745,-3 -6.512,5.404 -8.66,9.266 -6.086,10.628 -10.808,21.691 -9.096,34.734 6.011,1.03 8.585,-0.777 10.213,-3.171 z" style="fill:#b8e5e0;fill-opacity:1;fill-rule:nonzero;stroke:none" id="path120"/>
                        </g>
                        <g id="g122">
                          <path d="m 570.632,1193.678 c 6.095,1.542 14.149,-20.586 12.862,-33.873 -0.17,-1.202 -1.627,-3.435 -2.564,-3.606 -2.148,-0.34 -5.319,-0.426 -6.351,0.692 -9.862,10.116 -18.351,33.02 -3.947,36.787 z" style="fill:#b8e5e0;fill-opacity:1;fill-rule:nonzero;stroke:none" id="path124"/>
                        </g>
                        <g id="g126">
                          <path d="m 545.42,1289.398 c 4.883,0.085 11.49,-14.319 8.66,-23.926 -0.341,-0.946 -1.968,-2.574 -3,-2.66 -2.148,-0.35 -5.319,-0.521 -6.265,0.256 -8.235,7.033 -11.234,23.499 0.605,26.33 z" style="fill:#b8e5e0;fill-opacity:1;fill-rule:nonzero;stroke:none" id="path128"/>
                        </g>
                        <g id="g130">
                          <path d="m 580.93,1135.273 c 2.224,0.341 7.117,1.287 8.489,0.085 2.745,-2.233 4.713,-8.66 5.915,-11.754 l 1.543,-3.946 -14.32,-4.714 v 0.085 c -1.458,4.032 -3,8.064 -3.776,12.267 -0.426,1.969 -0.776,7.372 2.149,7.977 z" style="fill:#b8e5e0;fill-opacity:1;fill-rule:nonzero;stroke:none" id="path132"/>
                        </g>
                      </g>
                    </g>
                  </g>
                </g>
              </g>
            </g>
          </g>
          <g id="g134">
            <g id="g136" transform="translate(23.490026,20.693135)">
              <g id="g138" transform="scale(0.75)">
                <g id="g140">
                  <g id="g142" clip-path="url(#clipPath146)">
                    <g id="g148" transform="scale(0.02758,0.027484)">
                      <g id="g150">
                        <path d="m 1861.007,401.354 c -64.531,-71.566 -151.684,-116.763 -233.18,-120.951 -4.189,-0.215 -8.377,-0.302 -12.52,-0.302 -47.559,0 -89.445,14.174 -122.104,41.401 l 10.865,-9.329 C 1280.762,52.741 928.059,55.382 838.152,60.847 V 58.619 C 838.152,26.287 809.791,0 774.957,0 H 667.043 c -34.837,0 -63.196,26.287 -63.196,58.619 v 95.094 h -91.728 v 50.459 h 91.728 v 98.247 h -39.022 c -33.28,0 -60.346,26.849 -60.346,59.915 v 139.898 h -23.31 C 193.126,609.369 0,884.638 0,1188.655 c 0,293.182 174.132,554.422 444.091,666.999 h 553.817 c 269.959,-112.577 444.088,-373.861 444.088,-666.999 0,-304.018 -193.166,-579.286 -481.167,-686.423 H 937.518 V 362.334 c 0,-33.066 -27.063,-59.915 -60.344,-59.915 h -39.021 v -198.63 c 78.591,-4.268 423.368,-8.034 633.541,236.183 l 17.832,-15.311 c -0.533,0.471 -1.071,0.935 -1.6,1.413 -92.764,83.914 -76.188,254.203 36.863,379.644 64.529,71.566 151.684,116.764 233.182,120.907 54.994,2.847 103.77,-12.95 139.943,-45.671 92.72,-83.871 76.146,-254.203 -36.907,-379.6 z M 695.23,106.92 c 0,-14.244 11.523,-25.768 25.768,-25.768 14.246,0 25.771,11.524 25.771,25.768 v 50.937 c 0,14.2 -11.524,25.768 -25.771,25.768 -14.243,0 -25.768,-11.568 -25.768,-25.768 z" style="fill:#82cbc4;fill-opacity:1;fill-rule:nonzero;stroke:none" id="path152"/>
                      </g>
                    </g>
                  </g>
                </g>
              </g>
            </g>
          </g>
          <g id="g154">
            <g id="g156" transform="translate(23.763987,15.808934)">
              <g id="g158" transform="scale(0.75)">
                <g id="g160">
                  <g id="g162" clip-path="url(#clipPath166)">
                    <g id="g168" transform="scale(0.012311,0.011672)">
                      <g id="g170">
                        <path d="m 417.785,1076.449 c -6.029,0.894 -12.07,1.889 -18.009,3.077 -11.979,2.375 -23.857,5.146 -35.837,8.314 -7.127,1.979 -13.156,3.756 -20.883,6.629 -2.477,0.792 -4.853,1.776 -7.025,3.065 -7.33,3.462 -14.253,7.727 -20.882,12.172 -2.285,1.392 -8.123,6.731 -9.898,8.711 -11.878,12.67 -17.421,21.878 -28.711,33.462 -4.457,4.548 -8.507,9.604 -12.375,14.842 l 13.767,9.31 c 6.923,-8.416 14.253,-16.437 22.07,-23.857 5.249,-4.943 9.005,-9.898 15.441,-17.025 7.715,-9.106 14.446,-14.751 24.254,-18.801 7.319,-3.167 14.253,-6.244 22.862,-9.604 l 29.299,-5.938 c 1.38,0.192 7.025,-0.294 18.609,-4.254 4.943,-1.686 11.979,-2.183 16.923,-1.979 2.081,0 4.559,-0.792 7.025,-1.889 3.473,-1.086 6.73,-2.964 8.914,-4.152 l 2.375,-0.6 c 0.396,-0.191 0.192,0.103 2.477,-0.882 1.278,-0.792 2.07,-1.392 2.771,-1.979 0.792,-0.792 1.381,-1.392 2.274,-2.771 0.192,-0.306 0.588,-0.894 0.792,-1.392 l 0.396,-1.188 c 0.102,-0.192 0.396,-1.776 0.294,-2.67 v -0.792 l -0.192,-1.392 v -0.294 l -0.497,-2.67 v 0 c -0.204,-0.995 -0.498,-2.081 -1.188,-3.665 -0.396,-0.792 -0.792,-1.776 -1.979,-3.065 -0.396,-0.498 -0.396,-0.498 -1.289,-1.188 -0.498,-0.599 -1.686,-1.188 -1.878,-1.391 h -0.204 v -0.091 0 l -1.086,-0.396 -0.294,-0.204 c -1.584,-0.588 -3.167,-1.29 -4.751,-1.776 -3.167,-1.097 -6.538,-1.889 -10,-2.477 -6.041,-0.792 -11.583,-1.482 -17.319,-2.184 -7.522,-0.792 -13.959,-0.396 -23.756,0 -12.172,0.396 -21.776,0.102 -32.67,-2.376 -8.314,-2.07 -16.425,-2.67 -24.548,-4.649 -8.507,-3.857 -16.629,-8.416 -23.756,-14.05 -0.588,-1.289 -4.547,-4.457 -13.462,-11.392 -3.959,-2.862 -7.421,-8.405 -9.4,-12.67 -1.776,-3.857 -7.522,-7.318 -10.486,-10.689 -1.392,-2.67 -2.681,-5.238 -3.869,-7.919 l -4.05,2.285 4.05,-2.285 c -4.547,-9.898 -8.009,-19.989 -10.588,-30.091 -1.583,-6.731 -3.665,-12.172 -5.939,-21.075 -0.792,-2.771 -1.29,-5.453 -1.686,-8.021 -0.396,-2.873 -0.792,-5.645 -1.188,-8.416 -0.792,-5.543 -1.278,-10.984 -1.584,-16.923 -0.588,-9.208 -3.065,-17.625 -5.045,-26.233 l -1.776,-29.887 c 0.486,-1.29 0.69,-7.036 -1.686,-19.208 -0.996,-5.045 -0.792,-12.172 0,-17.025 0.588,-4.152 -2.375,-10.294 -3.065,-15.045 0.09,-1.29 0.09,-4.253 -0.306,-6.437 -0.396,-2.375 -1.188,-5.045 -3.258,-7.918 v -0.09 c -1.686,-2.285 -3.563,-3.767 -5.543,-5.147 -1.788,-0.995 -5.747,-3.869 -12.376,-1.889 -3.269,1.098 -5.837,3.666 -7.025,5.939 -0.701,1.098 -1.097,2.082 -1.493,3.563 l -0.192,0.702 -0.204,0.984 -0.882,4.355 c -1.29,5.747 -2.681,11.583 -3.767,17.421 -0.984,7.522 -0.792,13.959 -0.498,23.959 0.396,12.568 0.305,22.466 -1.086,34.344 -0.984,8.903 -0.102,18.111 0.396,26.233 -1.29,9.502 -3.36,18.903 -5.837,28.202 -0.894,1.097 -2.873,6.143 -4.751,18.213 -0.792,5.147 -3.767,11.482 -6.233,15.645 -1.889,3.665 -1.889,10.091 -2.771,14.649 -1.391,2.568 -3.077,5.045 -4.457,7.523 h -0.102 c -5.543,9.208 -12.172,17.523 -19.299,25.238 -4.649,5.147 -8.123,9.898 -14.254,16.833 -7.625,8.801 -15.147,14.445 -24.943,19.796 -7.625,3.756 -14.254,8.711 -21.675,12.67 -9.106,3.066 -18.417,5.441 -27.919,7.218 -1.29,-0.192 -6.833,0.203 -18.314,3.868 -4.751,1.381 -11.878,1.584 -17.116,1.278 -3.869,-0.191 -8.812,2.478 -13.461,4.56 -0.996,0.396 -1.889,0.792 -2.771,1.188 -4.355,1.188 -7.727,3.168 -10.294,4.457 v -0.102 l -1.686,0.894 c 0.396,-0.6 -4.163,2.466 -4.751,3.959 -0.69,0.792 -1.188,1.675 -1.788,2.964 -0.294,0.792 -0.588,1.482 -0.792,3.065 -0.396,2.184 0.894,5.544 0.6,4.752 l 0.69,2.285 c 0.294,0.983 0.69,2.069 1.482,3.563 0.396,0.791 0.894,1.481 1.788,2.567 0.498,0.498 0.792,0.894 1.776,1.686 0.6,0.396 1.29,0.792 1.686,1.086 l 0.204,0.102 3.258,1.482 2.58,0.995 c 6.923,2.376 13.857,3.065 19.989,3.258 8.314,0.306 13.666,-0.792 23.167,-1.278 11.776,-0.6 21.177,0.091 32.263,2.964 8.518,2.184 16.731,2.771 24.943,4.56 8.711,3.563 17.025,8.009 24.65,13.156 0.69,1.289 4.751,4.354 14.253,10.689 3.959,2.682 8.123,7.828 10.192,11.98 1.788,3.461 7.432,6.437 10.294,9.796 1.29,2.579 2.478,5.057 3.473,7.727 l 6.335,-3.167 -6.335,3.269 c 3.654,9.4 6.731,20.589 9.797,31.177 1.979,7.025 4.547,12.772 8.111,21.675 4.457,11.29 7.126,20.396 8.224,31.675 0.792,8.608 2.964,16.629 4.05,24.943 -0.396,9.706 -0.396,20 -0.588,30.091 -0.498,1.29 -1.188,7.025 0.792,19.604 0.792,5.237 0.396,12.568 -0.294,17.613 -0.305,2.184 0.294,4.955 1.086,7.625 0.894,2.375 1.776,5.938 3.066,9.502 0.69,4.751 4.853,10.588 9.604,12.964 l 4.152,-8.314 -2.67,8.914 c 2.874,0.984 6.437,1.278 10.102,0.192 3.563,-1.188 6.821,-3.756 8.801,-7.229 0.894,-1.482 1.584,-4.151 1.788,-5.046 l 0.498,-2.172 0.882,-4.265 c 1.29,-5.633 2.376,-11.38 3.27,-17.115 1.29,-7.625 1.29,-14.355 0.69,-24.548 -0.396,-6.539 -0.69,-12.274 -0.984,-17.919 -0.294,-5.645 -0.599,-11.29 -0.294,-16.73 0.192,-8.609 -0.701,-16.924 -0.701,-25.34 1.686,-9.4 4.061,-18.711 7.229,-27.613 0.894,-1.086 3.065,-5.939 6.041,-17.523 1.38,-4.751 4.751,-10.792 7.817,-14.548 2.376,-3.269 3.066,-9.796 4.649,-14.061 l 5.453,-7.025 -13.666,-9.106 -4.751,6.731 c -0.102,-0.103 -2.67,4.253 -2.67,4.253 -13.461,21.482 -22.862,44.548 -27.025,70.284 -1.188,7.318 -1.584,14.842 -1.38,22.273 -0.102,2.466 -0.102,4.943 0.192,7.319 l 0.69,11.584 c 0.204,3.665 0.204,7.229 0.102,10.792 -0.102,2.375 0.204,9.593 0.294,11.968 0.792,16.539 1.98,27.025 -1.38,42.274 l -0.996,4.548 -0.192,0.498 c -0.102,-0.69 -0.294,-2.376 -0.294,-2.478 -0.498,-23.858 -0.498,-47.309 -1.29,-71.856 -0.102,-7.127 -0.498,-14.853 -1.788,-22.172 -0.09,-2.478 -0.588,-4.854 -1.188,-7.229 -1.482,-7.522 -2.862,-15.046 -4.355,-22.568 -0.396,-2.478 -2.568,-9.797 -3.461,-12.172 -5.939,-16.335 -11.584,-25.441 -15.939,-40.781 -1.674,-5.938 -3.756,-12.273 -6.731,-18.314 v 0.102 c -1.188,-2.579 -2.375,-5.147 -3.857,-7.624 l -2.67,-4.457 c -13.756,-22.173 -34.446,-38.903 -58.994,-48.599 -7.127,-2.669 -14.458,-4.649 -21.776,-5.938 -2.375,-0.69 -4.751,-1.086 -7.127,-1.29 -7.625,-1.188 -15.045,-2.478 -22.67,-3.665 -2.568,-0.486 -10.192,-0.882 -12.771,-0.792 -17.613,-0.294 -28.994,5.057 -42.06,1.098 -0.305,-0.102 -0.498,-0.306 -0.792,-0.396 1.674,-0.894 3.167,-1.686 4.253,-1.979 0,0 1.188,-0.497 2.081,-0.6 0.588,-0.102 1.278,-0.192 1.278,-0.192 11.29,-1.889 23.666,-2.081 35.939,-4.559 12.172,-1.878 24.344,-5.045 36.618,-9.299 3.461,-1.289 6.935,-2.681 10.294,-4.265 l 9.898,-5.237 c 2.274,-1.098 4.355,-2.478 6.335,-3.869 3.371,-2.07 6.629,-4.05 9.796,-6.335 3.27,-2.172 6.539,-4.151 9.706,-6.527 2.172,-1.392 8.111,-6.335 9.796,-8.416 12.376,-12.862 17.715,-22.274 27.919,-35.034 3.756,-5.249 7.715,-10.6 10.588,-16.438 l -10.69,-5.339 10.69,5.339 3.959,-7.319 c 0,-0.102 1.979,-4.457 2.082,-4.559 10.09,-23.36 17.319,-45.928 20.679,-71.856 0.894,-7.432 0.6,-15.147 0.702,-21.979 0.09,-2.376 0.192,-4.751 0,-7.025 0.09,-7.421 0.294,-14.751 1.188,-22.071 0.294,-2.477 0.294,-9.808 0.294,-12.274 0,-14.163 -1.392,-24.152 0.588,-35.837 -0.192,24.65 1.392,48.01 4.163,72.354 0.792,7.126 1.98,14.163 3.27,21.086 0.294,2.375 0.588,4.649 1.188,6.935 1.278,7.217 2.274,14.548 2.466,21.867 0.102,2.285 1.097,9.604 1.583,12.376 3.563,17.715 8.813,27.319 13.858,42.862 1.979,6.131 4.751,12.07 7.726,17.817 h 0.102 c 1.188,2.478 2.568,4.854 3.959,7.229 0,0.091 2.466,4.254 2.568,4.355 6.437,10.486 13.959,21.278 23.564,30.091 9.502,8.801 20.588,16.029 32.862,21.278 7.025,3.065 14.344,5.046 21.776,6.527 2.375,0.498 4.841,1.098 7.319,1.188 7.625,1.098 15.147,2.082 22.862,3.168 2.478,0.396 10,0.701 12.58,0.6 17.115,-0.204 27.613,-2.274 43.055,0.102 0.69,0.091 1.29,0.294 1.878,0.396 l -3.167,0.396 z m 20.69,-0.091 11.188,-3.167 -11.188,3.167 z m -422.754,12.365 -0.102,-0.09 c 0.995,0.396 0.204,0.09 0.396,0.192 0,0 -0.396,-0.295 0.102,0 0.102,0 0.102,0.102 0.192,0.203 z m 0.589,0.305 -6.335,-10.498 6.335,10.498 z m 0.497,0.691 -0.498,-0.69 v 0 l 0.498,0.69 z" style="fill:#b8e5e0;fill-opacity:1;fill-rule:nonzero;stroke:none" id="path172"/>
                      </g>
                      <g id="g174">
                        <path d="m 585.071,1658.967 c -71.369,-29.887 -114.525,-99.876 -126.302,-187.773 -1.979,-14.151 3.27,-75.419 -11.29,-81.46 -20.882,-8.314 -13.258,58.598 -13.36,70.476 -0.294,43.757 -6.923,85.228 -29.401,121.054 -25.735,40.781 -55.521,75.929 -97.094,94.436 -3.473,1.584 -6.731,3.665 -9.898,5.938 -4.457,2.964 -4.163,11.381 0.69,14.152 5.543,3.167 11.188,6.232 17.127,8.416 57.806,21.675 98.779,56.912 110.861,123.531 7.127,38.993 13.756,70.08 9.106,131.245 -1.392,18.123 26.528,13.768 27.014,-4.354 0.396,-16.03 0.102,-32.365 2.183,-47.807 12.467,-90.962 45.137,-182.423 123.136,-218.452 6.832,-3.168 16.629,-5.747 16.923,-15.249 0.396,-14.741 -12.274,-11.087 -19.695,-14.153 z" style="fill:#b8e5e0;fill-opacity:1;fill-rule:nonzero;stroke:none" id="path176"/>
                      </g>
                      <g id="g178">
                        <g id="g180">
                          <path d="m 672.278,974.4 c -0.102,28.903 -12.183,66.811 8.903,86.913 20.69,-24.458 10.498,-56.427 10.792,-86.02 0.396,-56.426 2.172,-112.942 11.086,-168.565 16.821,-105.42 61.369,-211.53 167.378,-253.205 9.4,-3.756 22.67,-6.731 23.065,-17.715 0.588,-17.127 -16.731,-12.874 -26.821,-16.437 C 769.678,484.734 710.876,403.67 694.847,301.61 c -2.579,-16.324 4.446,-87.399 -15.249,-94.322 -28.507,-9.706 -18.111,67.896 -18.213,81.652 -0.396,50.781 -9.4,98.791 -40.091,140.364 -34.842,47.308 -75.521,87.999 -131.936,109.469 -4.752,1.788 -9.209,4.265 -13.563,6.833 -5.939,3.461 -5.544,13.269 0.894,16.437 7.613,3.654 15.339,7.217 23.359,9.797 163.713,52.16 172.717,261.812 172.23,402.56 z" style="fill:#b8e5e0;fill-opacity:1;fill-rule:nonzero;stroke:none" id="path182"/>
                        </g>
                        <g id="g184">
                          <path d="m 680.39,1148.022 c -9.208,1.188 -17.319,11.177 -17.218,21.38 0.091,16.821 12.862,29.096 28.598,27.319 9.898,-1.188 17.919,-10.792 17.421,-20.894 -0.984,-16.628 -14.446,-29.694 -28.801,-27.805 z" style="fill:#b8e5e0;fill-opacity:1;fill-rule:nonzero;stroke:none" id="path186"/>
                        </g>
                        <g id="g188">
                          <path d="m 662.969,85.827 c 10,2.681 20.69,-5.339 21.482,-16.029 -0.204,-9.31 -5.441,-15.441 -14.65,-16.833 -9.897,-1.482 -16.437,4.661 -18.314,13.371 -1.776,8.801 1.685,16.821 11.482,19.491 z" style="fill:#b8e5e0;fill-opacity:1;fill-rule:nonzero;stroke:none" id="path190"/>
                        </g>
                        <g id="g192">
                          <path d="m 683.557,1281.451 c -5.248,-0.396 -8.902,3.258 -9.208,8.711 -0.396,7.421 3.96,12.07 10.894,12.67 5.249,0.588 8.507,-3.371 9.503,-8.813 -0.691,-6.832 -3.858,-12.081 -11.189,-12.568 z" style="fill:#b8e5e0;fill-opacity:1;fill-rule:nonzero;stroke:none" id="path194"/>
                        </g>
                        <g id="g196">
                          <path d="m 666.238,11.595 c 1.188,-2.771 2.375,-5.441 3.563,-8.213 -2.579,-1.29 -5.146,-3.563 -7.522,-3.371 -3.857,0.294 -5.441,3.857 -3.167,7.025 1.481,2.082 4.75,3.077 7.126,4.559 z" style="fill:#b8e5e0;fill-opacity:1;fill-rule:nonzero;stroke:none" id="path198"/>
                        </g>
                        <g id="g200">
                          <path d="m 670.197,138.09 c 1.289,-0.396 3.359,-2.375 3.167,-2.67 -1.289,-2.375 -3.065,-4.649 -4.649,-6.923 -1.787,1.878 -3.563,3.857 -5.248,5.735 0.689,3.768 2.963,5.249 6.73,3.858 z" style="fill:#b8e5e0;fill-opacity:1;fill-rule:nonzero;stroke:none" id="path202"/>
                        </g>
                      </g>
                    </g>
                  </g>
                </g>
              </g>
            </g>
          </g>
          <g id="g204">
            <g id="g206" transform="translate(73.888544,23.074999)">
              <g id="g208"/>
              <g id="g210">
                <g id="g212">
                  <g id="g214">
                    <path d="m 11.911621,16.805859 c 0,0 0.760742,0.06006 1.411377,0.340332 0,0 0.650635,0.280274 1.121094,0.700684 0,0 0.470459,0.42041 0.730713,0.980957 0,0 0.260254,0.560547 0.260254,1.201172 0,0 0,0.700684 -0.310303,1.29126 0,0 -0.310303,0.590576 -0.85083,1.031006 0,0 -0.540528,0.440429 -1.28125,0.680664 0,0 -0.740723,0.240234 -1.601563,0.240234 0,0 -0.86084,0 -1.601562,-0.240234 0,0 -0.740723,-0.240235 -1.28125,-0.680664 0,0 -0.540528,-0.44043 -0.840821,-1.031006 0,0 -0.300292,-0.590576 -0.300292,-1.29126 0,0 0,-0.660645 0.270263,-1.231201 0,0 0.270264,-0.570557 0.760742,-1.000977 0,0 0.490479,-0.43042 1.161133,-0.690674 0,0 0.670654,-0.260254 1.471436,-0.300293 0,0 -0.04004,-0.220214 -0.220215,-0.370361 0,0 -0.180176,-0.150146 -0.600586,-0.290283 l 0.180176,-0.360352 c 0,0 0.460449,0.100098 0.86084,0.160157 0,0 0.40039,0.06006 0.900878,0.160156 0,0 -0.140136,0.320312 -0.240234,0.700683 z m 2.12207,3.143067 c 0,0 0,-0.520508 -0.200195,-0.980957 0,0 -0.200195,-0.460449 -0.560547,-0.800781 0,0 -0.360351,-0.340333 -0.84082,-0.540528 0,0 -0.480469,-0.200195 -1.041016,-0.200195 0,0 -0.580566,0 -1.071045,0.200195 0,0 -0.490478,0.200195 -0.85083,0.540528 0,0 -0.360351,0.340332 -0.570556,0.800781 0,0 -0.210205,0.460449 -0.210205,0.980957 0,0 0,0.520508 0.210205,0.980957 0,0 0.210205,0.460449 0.570556,0.800781 0,0 0.360352,0.340332 0.85083,0.530518 0,0 0.490479,0.190185 1.071045,0.190185 0,0 0.560547,0 1.041016,-0.190185 0,0 0.480469,-0.190186 0.84082,-0.530518 0,0 0.360352,-0.340332 0.560547,-0.800781 0,0 0.200195,-0.460449 0.200195,-0.980957 z M 9.168945,6.415723 c 0,0 -0.700683,-0.02002 -1.481445,0.010009 0,0 -0.780762,0.03003 -1.321289,0.03003 0,0 -0.140137,0 -0.370361,0.010009 0,0 -0.230225,0.01001 -0.510498,0.02002 0,0 -0.280274,0.01001 -0.580567,0.040039 0,0 -0.300293,0.030029 -0.560547,0.070068 L 3.743652,5.414746 c 0,0 0.480469,0.100098 1.111084,0.200195 0,0 0.630616,0.100098 1.251221,0.100098 0,0 0.500488,0 1.431397,-0.070068 0,0 0.930908,-0.070069 1.871826,-0.190186 z m 2.98291,2.182129 c 0,0 -0.460449,0 -1.121093,0 0,0 -0.660645,0 -1.421387,0.020019 0,0 -0.760742,0.02002 -1.561523,0.040039 0,0 -0.800782,0.02002 -1.551514,0.050049 0,0 -0.750733,0.030029 -1.391358,0.050049 0,0 -0.640625,0.020019 -1.061035,0.040039 0,0 -0.240234,0.020019 -0.600586,0.040039 0,0 -0.360351,0.020019 -0.740722,0.050049 0,0 -0.380371,0.030029 -0.740723,0.070068 0,0 -0.360351,0.040039 -0.600586,0.080078 L 0.740723,7.777051 c 0,0 0.580566,0.120117 1.341308,0.180176 0,0 0.760742,0.060058 1.341309,0.060058 0,0 0.460449,0 1.131103,-0.020019 0,0 0.670655,-0.02002 1.461426,-0.040039 0,0 0.790772,-0.02002 1.651611,-0.060059 0,0 0.86084,-0.040039 1.701661,-0.100098 0,0 0.84082,-0.060058 1.611572,-0.140136 0,0 0.770752,-0.080079 1.371338,-0.200196 z m -1.501464,4.184082 c 0,0 0,0.640625 -0.310303,1.211181 0,0 -0.310303,0.570557 -0.85083,0.990967 0,0 -0.540528,0.42041 -1.261231,0.670654 0,0 -0.720703,0.250244 -1.541504,0.250244 0,0 -0.8208,0 -1.551513,-0.250244 0,0 -0.730713,-0.250244 -1.27124,-0.680664 0,0 -0.540528,-0.43042 -0.850831,-0.990967 0,0 -0.310302,-0.560546 -0.310302,-1.201171 0,0 0,-0.680664 0.310302,-1.261231 0,0 0.310303,-0.580566 0.850831,-0.990967 0,0 0.540527,-0.4104 1.27124,-0.640625 0,0 0.730713,-0.230224 1.551513,-0.230224 0,0 0.88086,0 1.611573,0.250244 0,0 0.730713,0.250244 1.25122,0.680664 0,0 0.520508,0.43042 0.810791,1.000976 0,0 0.290284,0.570557 0.290284,1.191163 z M 4.164063,12.681836 c 0,0 0,0.500488 0.190185,0.940918 0,0 0.190186,0.44043 0.530518,0.770752 0,0 0.340332,0.330322 0.800781,0.530517 0,0 0.460449,0.200196 1.000976,0.200196 0,0 0.540528,0 1.000977,-0.190186 0,0 0.460449,-0.190185 0.800781,-0.520508 0,0 0.340332,-0.330322 0.530518,-0.770752 0,0 0.190185,-0.440429 0.190185,-0.960937 0,0 0,-0.480469 -0.180175,-0.910889 0,0 -0.180176,-0.43042 -0.510498,-0.770752 0,0 -0.330323,-0.340332 -0.800782,-0.540527 0,0 -0.470459,-0.200195 -1.031006,-0.200195 0,0 -0.540527,0 -1.000976,0.180175 0,0 -0.460449,0.180176 -0.800781,0.500489 0,0 -0.340332,0.320312 -0.530518,0.770752 0,0 -0.190185,0.450439 -0.190185,0.970947 z m 11.150878,0.320312 c 0,0 0.820801,-0.04004 1.861817,-0.160156 0,0 1.041015,-0.120117 2.12207,-0.280273 l -0.200195,1.241211 c 0,0 -0.42041,-0.02002 -0.920899,-0.02002 0,0 -0.500488,0 -1.010986,0 0,0 -0.510498,0 -1.000977,0.01001 0,0 -0.490478,0.01001 -0.870849,0.01001 0,0 -0.02002,0.360351 -0.05005,0.750732 0,0 -0.03003,0.390381 -0.07007,0.760742 0,0 -0.04004,0.370362 -0.09009,0.700684 0,0 -0.05005,0.330322 -0.09009,0.530517 l -0.880859,0.120118 c 0,0 -0.08008,-0.44043 -0.120118,-1.121094 0,0 -0.04004,-0.680664 -0.04004,-1.241211 V 6.415723 c 0,0 0,-0.680664 -0.610595,-1.091065 0,0 -0.610596,-0.4104 -1.891846,-0.710693 l 0.240234,-0.540527 c 0,0 1.000977,0.120117 2.021973,0.310302 0,0 1.020996,0.190186 1.801758,0.350342 0,0 -0.08008,0.360352 -0.140137,0.820801 0,0 -0.06006,0.460449 -0.06006,0.86084 v 2.282226 c 0,0 0.820801,-0.040039 1.861817,-0.160156 0,0 1.041015,-0.120117 2.12207,-0.280273 l -0.200195,1.221191 c 0,0 -0.42041,-0.02002 -0.910889,-0.02002 0,0 -0.490478,0 -1.000976,0 0,0 -0.510498,0 -0.990967,0.01001 0,0 -0.480469,0.01001 -0.88086,0.01001 v 3.523437 z" style="fill:#4fb7b1;fill-opacity:1;fill-rule:nonzero;stroke:none" id="path216"/>
                    <path d="m 30.950195,7.937207 c 0,0 -0.580566,1.741699 -1.581543,3.383301 0,0 -1.000976,1.641601 -2.272216,3.083008 0,0 -1.271241,1.441406 -2.742676,2.602539 0,0 -1.471436,1.161133 -2.99292,1.921875 L 20.92041,18.4875 c 0,0 1.441406,-0.86084 2.742676,-2.001953 0,0 1.301269,-1.141113 2.352295,-2.432373 0,0 1.051025,-1.29126 1.821777,-2.682617 0,0 0.770752,-1.391358 1.171143,-2.752686 0,0 -0.300293,0 -0.840821,0.02002 0,0 -0.540527,0.020019 -1.121093,0.040039 0,0 -0.580567,0.020019 -1.111084,0.040039 0,0 -0.530518,0.020019 -0.810791,0.020019 0,0 -0.220215,0 -0.570557,0.03003 0,0 -0.350342,0.030029 -0.740723,0.070068 0,0 -0.39038,0.040039 -0.790771,0.080078 0,0 -0.400391,0.040039 -0.740723,0.100098 L 21.500977,7.757031 c 0,0 0.260253,0.060059 0.600586,0.100098 0,0 0.340332,0.040039 0.710693,0.070068 0,0 0.370361,0.03003 0.740723,0.040039 0,0 0.370361,0.01001 0.710693,0.01001 0,0 0.740723,0 1.601562,-0.020019 0,0 0.86084,-0.02002 1.701661,-0.080079 0,0 0.84082,-0.060058 1.601562,-0.150146 0,0 0.760742,-0.090088 1.321289,-0.230225 z m 1.121094,-3.863769 c 0,0 1.000977,0.120117 2.021973,0.310302 0,0 1.020996,0.190186 1.801758,0.350342 0,0 -0.08008,0.360352 -0.140137,0.820801 0,0 -0.06006,0.460449 -0.06006,0.86084 V 17.62666 c 0,0 0,0.620606 -0.03003,1.421387 0,0 -0.03003,0.800781 -0.07007,1.601562 0,0 -0.04004,0.800782 -0.100098,1.521485 0,0 -0.06006,0.720703 -0.140137,1.181152 l -0.84082,0.100098 c 0,0 -0.04004,-0.340332 -0.08008,-0.85083 0,0 -0.04004,-0.510498 -0.06006,-1.101075 0,0 -0.02002,-0.590576 -0.03003,-1.211181 0,0 -0.01001,-0.620606 -0.01001,-1.201172 V 6.415723 c 0,0 0,-0.680664 -0.610596,-1.091065 0,0 -0.610595,-0.4104 -1.891845,-0.710693 l 0.240234,-0.540527 z" style="fill:#4fb7b1;fill-opacity:1;fill-rule:nonzero;stroke:none" id="path218"/>
                  </g>
                </g>
                <g id="g220">
                  <g id="g222"/>
                </g>
                <g id="g224">
                  <g id="g226">
                    <path d="m 53.286988,13.182324 c 0,0 1.000977,0.920899 2.062012,1.811768 0,0 1.061035,0.890869 2.5625,1.791748 l -1.161133,1.041015 c 0,0 -0.540527,-0.560546 -1.010986,-1.071044 0,0 -0.470459,-0.510498 -0.940918,-1.000977 0,0 -0.470459,-0.490479 -0.950928,-1.000977 0,0 -0.480469,-0.510498 -1.020996,-1.051025 0,0 -1.321289,1.521484 -2.852783,2.722656 0,0 -1.531494,1.201172 -3.153076,2.041992 l -0.400391,-0.380371 c 0,0 1.401367,-0.860839 2.682617,-1.961914 0,0 1.28125,-1.101074 2.342285,-2.362304 0,0 1.061036,-1.261231 1.841797,-2.632569 0,0 0.780762,-1.371338 1.201172,-2.752685 0,0 -0.300293,0 -0.790771,0.020019 0,0 -0.490479,0.02002 -1.010987,0.040039 0,0 -0.520507,0.02002 -1.010986,0.040039 0,0 -0.490478,0.02002 -0.770752,0.02002 0,0 -0.220215,0 -0.570557,0.030029 0,0 -0.350341,0.03003 -0.740722,0.070069 0,0 -0.390381,0.040039 -0.790772,0.090087 0,0 -0.40039,0.050049 -0.740722,0.110108 L 47.301148,7.536816 c 0,0 0.240235,0.040039 0.580567,0.080079 0,0 0.340332,0.040039 0.710693,0.070068 0,0 0.370362,0.030029 0.740723,0.040039 0,0 0.370361,0.01001 0.710693,0.01001 0,0 0.740723,0 1.551514,-0.02002 0,0 0.810791,-0.020019 1.601562,-0.080078 0,0 0.790772,-0.060059 1.501465,-0.150146 0,0 0.710694,-0.090088 1.27124,-0.210205 l 0.46045,0.42041 c 0,0 -0.520508,1.501465 -1.31128,2.872802 0,0 -0.790771,1.371338 -1.831787,2.612549 z m 7.046875,-0.380371 c 0,0 -2.402343,0.08008 -4.043945,0.400391 l -0.540527,-1.181153 c 0,0 0.40039,0.100098 1.061035,0.140137 0,0 0.660644,0.04004 1.26123,0.02002 0,0 0.520508,-0.02002 1.131104,-0.02002 0,0 0.610595,0 1.131103,-0.02002 V 6.415722 c 0,0 0,-0.680664 -0.610595,-1.091065 0,0 -0.610596,-0.4104 -1.891846,-0.710693 l 0.220215,-0.540527 c 0,0 1.020996,0.120117 2.031982,0.310302 0,0 1.010986,0.190186 1.811768,0.350342 0,0 -0.08008,0.360352 -0.150147,0.820801 0,0 -0.07007,0.460449 -0.07007,0.86084 v 11.210937 c 0,0 0,0.620606 -0.03003,1.421387 0,0 -0.03003,0.800781 -0.07007,1.601562 0,0 -0.04004,0.800782 -0.100097,1.521485 0,0 -0.06006,0.720703 -0.140137,1.181152 l -0.84082,0.100098 c 0,0 -0.04004,-0.340332 -0.07007,-0.85083 0,0 -0.03003,-0.510498 -0.05005,-1.101075 0,0 -0.02002,-0.590576 -0.03003,-1.211181 0,0 -0.01001,-0.620606 -0.01001,-1.201172 v -6.286133 z" style="fill:#4fb7b1;fill-opacity:1;fill-rule:nonzero;stroke:none" id="path228"/>
                    <path d="m 72.125367,10.860059 c 0,0 1.000977,0.8208 2.082031,1.501464 0,0 1.081055,0.680665 2.5625,1.441407 l -1.161132,1.020996 c 0,0 -0.520508,-0.480469 -1.000977,-0.910889 0,0 -0.480469,-0.43042 -0.960937,-0.85083 0,0 -0.480469,-0.42041 -0.970948,-0.84082 0,0 -0.490478,-0.42041 -1.031006,-0.88086 0,0 -1.461425,1.481446 -3.123046,2.57251 0,0 -1.661622,1.091065 -3.123047,1.691651 l -0.42041,-0.44043 c 0,0 2.662597,-1.28125 4.754638,-3.333252 0,0 2.092041,-2.052002 3.253174,-4.594483 0,0 -0.300293,0 -0.740723,0.02002 0,0 -0.440429,0.02002 -0.920898,0.040039 0,0 -0.480469,0.02002 -0.930908,0.040039 0,0 -0.45044,0.02002 -0.730713,0.02002 0,0 -0.220215,0 -0.560547,0.030029 0,0 -0.340332,0.030029 -0.730713,0.060059 0,0 -0.390381,0.030029 -0.790771,0.080078 0,0 -0.400391,0.050048 -0.740723,0.090088 L 66.059449,6.415723 c 0,0 0.520508,0.100097 1.30127,0.150146 0,0 0.780761,0.050049 1.441406,0.050049 0,0 1.501465,0.02002 3.032959,-0.090088 0,0 1.531494,-0.110107 2.652588,-0.370361 l 0.460449,0.440429 c 0,0 -0.480469,1.181153 -1.201172,2.242188 0,0 -0.720703,1.061035 -1.621582,2.021973 z m 4.063965,5.705566 c 0,0 0.780762,0.06006 1.451416,0.350342 0,0 0.670654,0.290283 1.161133,0.730713 0,0 0.490478,0.440429 0.760742,1.020996 0,0 0.270264,0.580566 0.270264,1.241211 0,0 0,0.720703 -0.320313,1.341308 0,0 -0.320312,0.620606 -0.890869,1.071045 0,0 -0.570557,0.45044 -1.331299,0.700684 0,0 -0.760742,0.250244 -1.661621,0.250244 0,0 -0.900879,0 -1.671631,-0.250244 0,0 -0.770752,-0.250244 -1.321289,-0.700684 0,0 -0.550537,-0.450439 -0.870849,-1.071045 0,0 -0.320313,-0.620605 -0.320313,-1.341308 0,0 0,-0.680664 0.290283,-1.271241 0,0 0.290284,-0.590576 0.800782,-1.041015 0,0 0.510498,-0.45044 1.211181,-0.730713 0,0 0.700684,-0.280273 1.521485,-0.320313 0,0 -0.06006,-0.240234 -0.240235,-0.39038 0,0 -0.180176,-0.150147 -0.640625,-0.290284 l 0.220215,-0.40039 c 0,0 0.460449,0.100097 0.890869,0.180176 0,0 0.43042,0.08008 0.930908,0.180175 0,0 -0.08008,0.160157 -0.140136,0.340332 0,0 -0.06006,0.180176 -0.100098,0.400391 z m 2.182129,3.243164 c 0,0 0,-0.560547 -0.210205,-1.041016 0,0 -0.210205,-0.480468 -0.580567,-0.84082 0,0 -0.370361,-0.360351 -0.880859,-0.570557 0,0 -0.510498,-0.210205 -1.091064,-0.210205 0,0 -0.580567,0 -1.091065,0.210205 0,0 -0.510498,0.210206 -0.880859,0.570557 0,0 -0.370362,0.360352 -0.580567,0.84082 0,0 -0.210205,0.480469 -0.210205,1.041016 0,0 0,0.540527 0.210205,1.020996 0,0 0.210205,0.480469 0.580567,0.84082 0,0 0.370361,0.360352 0.880859,0.560547 0,0 0.510498,0.200196 1.091065,0.200196 0,0 0.600586,0 1.101074,-0.200196 0,0 0.500488,-0.200195 0.870849,-0.560547 0,0 0.370362,-0.360351 0.580567,-0.84082 0,0 0.210205,-0.480469 0.210205,-1.020996 z m 1.501465,-7.026855 c 0,0 0,0.360351 -0.03003,0.83081 0,0 -0.03003,0.470459 -0.08008,0.940918 0,0 -0.05005,0.470459 -0.100097,0.880859 0,0 -0.05005,0.410401 -0.110108,0.670655 l -0.900879,0.120117 c 0,0 -0.06006,-0.42041 -0.100097,-1.111084 0,0 -0.04004,-0.690674 -0.04004,-1.231201 V 6.415723 c 0,0 0,-0.680664 -0.610596,-1.091065 0,0 -0.610596,-0.4104 -1.891846,-0.710693 l 0.240235,-0.540527 c 0,0 1.000976,0.120117 2.021972,0.310302 0,0 1.020996,0.190186 1.801758,0.350342 0,0 -0.08008,0.360352 -0.140137,0.820801 0,0 -0.06006,0.460449 -0.06006,0.86084 v 3.863769 c 0,0 0.820801,-0.04004 1.861816,-0.150146 0,0 1.041016,-0.110108 2.12207,-0.270264 l -0.200195,1.221191 c 0,0 -0.42041,-0.02002 -0.910888,-0.02002 0,0 -0.490479,0 -1.000977,0 0,0 -0.510498,0 -0.990967,0.01001 0,0 -0.480469,0.01001 -0.880859,0.01001 v 1.701661 z" style="fill:#4fb7b1;fill-opacity:1;fill-rule:nonzero;stroke:none" id="path230"/>
                    <path d="m 94.046754,9.158398 c 0,0 0.740723,0.500489 1.72168,1.051026 0,0 0.980957,0.550537 2.021972,1.061035 0,0 1.041016,0.510498 2.041992,0.950928 0,0 1.000972,0.440429 1.801762,0.740722 l -1.18116,1.161133 c 0,0 -1.621578,-1.201172 -3.423336,-2.272217 0,0 -1.801758,-1.071045 -3.443359,-2.13208 0,0 -1.501465,1.761719 -3.363282,3.052979 0,0 -1.861816,1.29126 -3.803711,2.092041 l -0.40039,-0.480469 c 0,0 1.26123,-0.580566 2.392334,-1.361328 0,0 1.131103,-0.780762 2.092041,-1.681641 0,0 0.960937,-0.900879 1.731689,-1.881836 0,0 0.770752,-0.980957 1.31128,-1.981933 0,0 0.140136,-0.240235 0.140136,-0.380371 0,0 0,-0.140137 -0.240234,-0.320313 0,0 -0.180176,-0.120117 -0.42041,-0.260254 0,0 -0.240235,-0.140136 -0.740723,-0.40039 l 0.340332,-0.480469 c 0,0 0.820801,0.220215 1.561524,0.450439 0,0 0.740722,0.230225 1.541504,0.530518 0,0 -0.700684,1.361328 -1.681641,2.54248 z m 0.940918,10.129883 c 0,0 0.920898,-0.04004 1.70166,-0.06006 0,0 0.780762,-0.02002 1.28125,-0.04004 0,0 1.381348,-0.06006 2.622558,-0.180176 0,0 1.24121,-0.120117 2.34229,-0.280274 l -0.2002,1.321289 c 0,0 -0.80078,-0.04004 -1.97192,-0.05005 0,0 -1.171146,-0.01001 -2.532474,-0.03003 0,0 -0.560547,0 -1.391357,0.01001 0,0 -0.830811,0.01001 -1.781739,0.04004 0,0 -0.950928,0.03003 -1.951904,0.06006 0,0 -1.000977,0.03003 -1.901856,0.06006 0,0 -0.900878,0.03003 -1.631591,0.07007 0,0 -0.730713,0.04004 -1.131104,0.06006 0,0 -0.760742,0.04004 -1.531494,0.09009 0,0 -0.770752,0.05005 -1.511475,0.150147 l -0.520507,-1.381348 c 0,0 0.920898,0.100098 1.771728,0.150146 0,0 0.85083,0.05005 1.771729,0.09009 0,0 0.40039,0.02002 0.990966,0.02002 0,0 0.590577,0 1.28125,0 0,0 0.690674,0 1.441407,-0.02002 0,0 0.750732,-0.02002 1.511474,-0.04004 v -3.343261 c 0,0 0,-0.340332 -0.08008,-0.560547 0,0 -0.08008,-0.220215 -0.290283,-0.370362 0,0 -0.210205,-0.150146 -0.550537,-0.240234 0,0 -0.340332,-0.09009 -0.86084,-0.150146 l 0.200195,-0.520508 c 0,0 0.680664,-0.02002 1.511475,0.04004 0,0 0.83081,0.06006 1.611572,0.160156 0,0 -0.08008,0.380371 -0.140137,0.780762 0,0 -0.06006,0.40039 -0.06006,0.800781 v 3.363281 z" style="fill:#4fb7b1;fill-opacity:1;fill-rule:nonzero;stroke:none" id="path232"/>
                  </g>
                </g>
              </g>
            </g>
          </g>
        </g>
      </g>
    </g>
  </g>
</svg>
